<?xml version="1.0" standalone="no"?>
<!DOCTYPE svg PUBLIC "-//W3C//DTD SVG 20010904//EN"
 "http://www.w3.org/TR/2001/REC-SVG-20010904/DTD/svg10.dtd">
<svg version="1.0" xmlns="http://www.w3.org/2000/svg"
 width="512.000000pt" height="512.000000pt" viewBox="0 0 512.000000 512.000000"
 preserveAspectRatio="xMidYMid meet">
<metadata>
Created by potrace 1.14, written by Peter Selinger 2001-2017
</metadata>
<g transform="translate(0.000000,512.000000) scale(0.100000,-0.100000)"
fill="#000000" stroke="none">
<path d="M3350 4338 c-19 -11 -44 -31 -55 -44 -11 -13 -25 -24 -31 -24 -6 0
-33 -21 -60 -47 -27 -27 -63 -57 -78 -68 -16 -11 -38 -30 -49 -42 -11 -13 -25
-23 -30 -23 -5 0 -24 -15 -42 -34 -43 -45 -66 -56 -112 -56 -22 0 -45 -6 -52
-12 -11 -11 -12 -10 -6 1 6 10 4 12 -6 6 -14 -9 -25 -11 -91 -16 -21 -2 -38
-8 -38 -13 0 -6 -4 -5 -9 3 -5 8 -11 9 -15 3 -3 -6 -24 -9 -46 -7 -22 2 -40
-1 -40 -6 0 -5 -10 -9 -23 -9 -25 0 -67 -37 -67 -59 0 -7 -4 -9 -10 -6 -6 4
-10 -15 -10 -50 0 -31 -3 -54 -7 -52 -5 3 -9 -29 -11 -71 -1 -42 -6 -78 -10
-81 -4 -4 -7 -26 -7 -51 0 -25 -3 -53 -7 -62 -5 -10 -3 -18 5 -21 9 -4 9 -6 0
-6 -8 -1 -13 -15 -13 -33 -1 -42 -22 -71 -45 -61 -13 4 -16 3 -11 -5 5 -8 -5
-12 -33 -12 -23 0 -41 -4 -41 -10 0 -5 -3 -9 -7 -9 -31 5 -83 -3 -78 -11 4 -6
-5 -10 -22 -8 -15 1 -38 -4 -50 -11 -13 -6 -23 -9 -23 -6 0 3 -11 -5 -25 -19
-14 -14 -25 -32 -25 -41 0 -8 -4 -15 -8 -15 -10 0 -9 -36 1 -46 4 -4 1 -14 -6
-22 -9 -13 -9 -14 1 -8 6 4 12 2 12 -4 0 -6 11 -22 25 -36 20 -20 35 -25 86
-25 33 -1 66 4 72 10 6 6 23 11 38 11 15 0 30 6 32 13 4 9 6 8 6 -2 1 -11 4
-11 16 -1 8 7 21 10 29 7 8 -3 17 0 19 7 3 7 19 12 36 11 17 -1 31 1 31 5 0 3
19 7 42 9 23 1 45 6 48 10 3 4 12 8 20 8 14 0 16 -26 15 -191 0 -191 0 -191
25 -213 23 -21 70 -28 70 -11 0 4 16 8 35 8 19 0 35 5 35 10 0 6 11 10 23 10
13 0 27 3 31 7 21 22 66 1 66 -30 0 -9 3 -17 8 -19 15 -7 63 -90 60 -106 -2
-9 -13 -21 -25 -27 -11 -6 -28 -17 -37 -24 -9 -7 -16 -10 -16 -7 0 4 -10 -2
-22 -13 -11 -11 -25 -18 -30 -15 -5 3 -8 2 -7 -3 1 -4 1 -17 0 -28 -1 -17 -3
-18 -12 -5 -9 12 -10 11 -4 -5 3 -11 7 -24 8 -29 2 -10 46 -55 130 -133 30
-28 53 -54 50 -57 -4 -3 1 -6 10 -6 8 0 19 -9 22 -21 4 -11 9 -18 12 -15 3 3
21 -11 39 -31 19 -20 34 -33 34 -27 1 5 7 -2 15 -16 15 -28 18 -177 3 -186 -5
-3 -3 -13 4 -22 11 -13 11 -14 0 -8 -9 5 -13 3 -11 -5 4 -36 -2 -140 -9 -136
-4 3 -8 -7 -8 -21 -3 -53 -8 -82 -16 -82 -4 0 -5 -8 -3 -18 1 -10 -5 -34 -15
-55 -10 -20 -14 -34 -8 -31 5 3 4 -5 -3 -17 -25 -48 -29 -59 -29 -74 0 -8 -4
-15 -10 -15 -5 0 -10 -7 -10 -16 0 -20 -143 -164 -164 -164 -9 0 -16 -4 -16
-9 0 -16 -84 -22 -317 -24 -128 -1 -230 -3 -228 -5 4 -5 -41 -52 -50 -52 -3 0
-3 6 1 13 5 7 0 6 -11 -3 -11 -9 -16 -10 -11 -3 5 10 -7 13 -48 14 -66 2 -67
2 -85 13 -10 7 -12 6 -6 -3 6 -10 3 -11 -11 -3 -11 5 -41 10 -67 10 -26 1 -53
4 -59 8 -16 10 -159 13 -152 3 4 -8 -35 -14 -59 -10 -5 1 -6 -3 -2 -9 5 -9
-23 -15 -48 -11 -5 1 -6 -3 -3 -8 3 -5 -3 -11 -14 -14 -31 -8 -33 -9 -54 -29
-11 -10 -24 -18 -29 -18 -13 0 -37 -27 -30 -34 4 -3 0 -6 -7 -6 -15 0 -80 -67
-80 -82 0 -5 -5 -6 -10 -3 -5 3 -10 -3 -10 -14 0 -12 -4 -21 -10 -21 -5 0 -10
-9 -10 -20 0 -11 -4 -20 -10 -20 -5 0 -10 -21 -10 -46 0 -43 10 -74 34 -101
30 -34 36 -43 29 -43 -4 0 -8 -14 -8 -30 -1 -17 3 -30 7 -30 4 0 8 -7 8 -15 0
-13 53 -15 418 -15 386 0 418 1 428 17 6 10 10 26 8 36 -4 27 108 25 143 -3
14 -11 22 -20 17 -20 -5 0 -4 -4 3 -8 17 -11 454 -7 461 4 4 5 16 9 27 9 11 0
26 4 34 10 12 8 13 7 6 -4 -6 -11 -3 -11 14 2 13 8 30 13 39 10 10 -4 13 -2 8
5 -5 8 1 12 18 12 14 0 26 5 26 12 0 6 3 8 6 5 4 -3 16 -1 28 5 11 7 24 11 29
10 4 -1 7 3 7 8 0 6 7 10 15 10 8 0 30 16 50 35 19 20 35 33 35 30 0 -3 8 3
18 13 11 9 18 20 16 23 -2 3 5 12 14 21 36 32 82 108 82 134 0 8 6 13 13 11 6
-1 11 4 9 11 -1 7 9 33 23 57 13 25 22 45 19 45 -4 0 1 11 10 25 9 13 16 36
16 50 0 15 4 24 10 20 6 -4 10 5 10 19 0 17 6 26 16 26 8 0 13 -4 9 -9 -3 -5
-1 -12 4 -15 5 -4 8 -14 6 -24 -1 -9 3 -23 9 -31 9 -12 8 -13 -4 -6 -12 7 -13
6 -3 -6 6 -8 13 -48 14 -89 1 -41 6 -83 11 -93 6 -12 5 -23 -1 -31 -6 -7 -8
-15 -5 -19 9 -9 11 -66 2 -61 -10 6 -11 -10 -1 -20 10 -10 13 -37 3 -31 -4 2
-8 -33 -9 -79 -1 -66 2 -86 15 -97 24 -20 1407 -21 1436 -1 18 13 19 27 17
183 -1 93 -5 167 -9 164 -3 -2 -7 32 -7 75 0 44 -4 85 -10 92 -5 7 -8 32 -7
56 1 23 -1 42 -5 42 -4 0 -9 21 -10 47 -1 26 -5 49 -9 53 -4 3 -9 21 -10 40
-2 19 -9 41 -15 49 -10 12 -9 13 3 6 12 -7 13 -6 4 6 -6 8 -11 26 -10 41 1 15
-4 30 -11 32 -7 3 -10 12 -7 21 3 8 3 23 -1 33 -5 9 -10 28 -12 42 -2 14 -8
27 -14 28 -5 2 -9 17 -9 33 0 16 -4 29 -9 29 -8 0 -25 53 -24 77 0 7 -2 13 -6
13 -9 0 -37 70 -33 82 1 4 -2 8 -6 8 -5 0 -15 18 -22 40 -7 22 -17 40 -21 40
-5 0 -6 7 -3 15 4 8 1 15 -5 15 -6 0 -11 7 -11 15 0 8 -5 15 -11 15 -5 0 -8 4
-4 9 3 5 -1 15 -8 23 -7 7 -14 15 -14 18 -3 20 -38 78 -45 74 -4 -3 -8 2 -8
11 0 13 -38 73 -60 95 -3 3 -6 11 -8 18 -1 7 -14 25 -27 38 -14 14 -25 28 -25
32 0 4 -35 45 -78 90 -44 45 -77 84 -74 87 3 3 -1 5 -8 5 -7 0 -23 11 -36 25
-13 14 -29 25 -35 25 -7 0 -9 3 -6 6 13 13 -40 49 -65 45 -5 0 -8 3 -8 8 0 5
-7 16 -15 25 -9 8 -16 31 -17 51 -1 19 -6 35 -11 35 -6 0 -6 5 0 13 10 13 11
27 2 42 -3 6 -7 44 -8 85 -1 41 -6 79 -12 85 -5 5 -9 14 -9 20 0 5 5 3 10 -5
14 -22 13 5 -1 32 -8 15 -8 19 0 14 6 -4 11 -2 11 3 0 6 -3 11 -7 11 -5 0 -8
43 -8 95 0 52 -3 95 -7 95 -5 0 -7 3 -6 8 4 13 -23 53 -32 47 -4 -3 -10 0 -12
7 -3 9 -12 9 -36 -1 -18 -7 -32 -18 -32 -23 0 -5 -4 -6 -10 -3 -5 3 -10 1 -10
-4 0 -6 -5 -11 -11 -11 -6 0 -17 -7 -25 -15 -26 -25 -42 -13 -35 28 0 4 -2 7
-7 7 -4 0 -8 14 -9 32 -1 17 -6 34 -10 37 -5 3 -10 20 -11 38 -3 27 0 32 25
37 43 10 65 15 105 25 20 5 39 6 42 3 4 -3 6 -1 6 4 0 5 15 11 32 12 18 2 37
7 42 12 6 6 20 10 33 10 13 0 23 5 23 11 0 5 5 7 10 4 6 -3 10 -2 10 4 0 5 7
16 15 25 21 20 21 93 1 131 -9 17 -16 26 -16 20 0 -6 -3 -6 -8 0 -19 27 -122
50 -106 24 5 -8 -4 -10 -29 -7 -20 2 -33 0 -31 -4 5 -8 -1 -10 -46 -12 -14 -1
-35 -7 -47 -14 -13 -7 -23 -10 -23 -6 0 3 -8 0 -17 -7 -11 -10 -14 -10 -9 -1
4 6 2 12 -3 12 -6 0 -11 -4 -11 -10 0 -34 -79 13 -80 48 0 6 -4 12 -10 12 -5
0 -10 7 -10 16 0 8 -4 12 -10 9 -5 -3 -10 1 -10 9 0 8 -7 21 -15 30 -9 8 -14
17 -13 20 2 2 -7 16 -19 30 -13 15 -23 31 -23 36 0 6 -4 10 -8 10 -5 0 -17 16
-28 35 -10 19 -22 35 -26 35 -5 0 -8 7 -8 15 0 8 -4 15 -10 15 -5 0 -10 7 -10
15 0 8 -3 15 -8 15 -4 0 -16 17 -27 38 -11 20 -27 44 -36 52 -9 8 -26 33 -38
55 -11 22 -21 37 -21 33 0 -3 -13 6 -29 21 -28 26 -67 39 -54 18 3 -5 -2 -5
-13 1 -14 7 -28 4 -54 -10z m440 -854 c0 -8 5 -14 10 -14 6 0 10 -13 10 -30 0
-16 3 -30 8 -30 4 0 8 -21 9 -46 2 -26 8 -53 15 -62 11 -13 11 -14 -2 -7 -12
6 -12 5 -3 -5 13 -14 6 -43 -8 -34 -5 3 -9 0 -9 -6 0 -6 -11 -15 -25 -22 -13
-6 -22 -15 -19 -19 3 -5 -1 -9 -9 -9 -7 0 -23 -9 -36 -21 -12 -12 -25 -19 -28
-16 -2 3 -19 -8 -35 -24 -17 -16 -37 -29 -44 -29 -8 0 -14 -4 -14 -10 0 -5
-16 -17 -35 -26 -19 -9 -35 -20 -35 -25 0 -5 -7 -9 -15 -9 -8 0 -15 -4 -15 -8
0 -4 -15 -16 -32 -27 -18 -10 -41 -27 -50 -38 -11 -13 -18 -15 -18 -7 0 8 -8
4 -19 -8 -10 -12 -23 -22 -28 -22 -6 0 -18 -9 -28 -20 -10 -11 -22 -17 -26
-14 -5 3 -9 0 -9 -5 0 -6 -7 -11 -16 -11 -8 0 -12 -4 -9 -10 5 -9 -1 -12 -21
-9 -3 0 -12 -8 -19 -18 -7 -10 -18 -18 -23 -18 -6 0 -24 -12 -40 -27 -17 -14
-33 -24 -36 -21 -3 3 -8 -1 -12 -10 -3 -9 -12 -13 -21 -10 -11 4 -14 2 -9 -5
5 -8 0 -12 -14 -12 -14 0 -19 -4 -14 -12 5 -9 2 -9 -9 1 -9 7 -17 10 -17 5 0
-9 -6 0 -57 98 -17 32 -33 54 -37 51 -3 -3 -6 3 -6 14 0 12 -7 24 -16 27 -8 3
-12 10 -9 16 4 6 -5 10 -19 10 -14 0 -26 6 -27 13 0 10 -2 10 -6 0 -2 -7 -18
-13 -34 -13 -17 0 -28 -4 -25 -9 3 -5 -6 -8 -20 -8 -15 0 -29 -4 -33 -9 -8
-12 -33 -11 -48 1 -13 12 -12 27 2 37 7 5 7 8 0 8 -6 0 -10 52 -11 134 l-1
134 28 -2 c16 0 31 -7 34 -14 3 -7 10 -10 15 -7 6 4 9 3 8 -2 -2 -4 1 -9 6
-10 5 0 13 -8 18 -17 5 -9 18 -16 28 -16 11 0 20 -4 20 -10 0 -5 14 -10 30
-10 17 0 30 -4 30 -10 0 -6 29 -10 66 -10 37 0 63 4 60 9 -4 5 6 8 21 6 16 -2
37 2 48 8 11 6 22 12 25 12 36 6 180 131 180 156 0 6 5 7 10 4 6 -3 10 3 10
14 0 12 5 21 10 21 6 0 10 6 10 14 0 20 26 39 55 39 14 0 28 3 31 8 3 5 21 9
40 9 19 0 34 5 34 10 0 6 11 10 25 10 34 0 115 22 115 32 0 4 6 5 14 2 7 -3
29 1 47 9 39 15 79 11 79 -9z m-701 -148 c10 -11 10 -20 0 -37 -33 -62 -85
-81 -142 -52 -22 11 -27 20 -25 44 1 17 10 37 20 43 10 7 15 16 11 19 -3 4 8
7 25 7 17 0 34 4 37 10 7 11 54 -10 74 -34z m-1279 -2138 c0 14 56 17 65 2 3
-5 28 -10 54 -10 26 0 51 -3 55 -7 4 -4 33 -9 64 -10 74 -4 82 -5 82 -13 0 -4
21 -6 48 -5 26 1 49 -2 52 -6 3 -4 19 -9 35 -12 22 -2 31 -10 33 -25 2 -12 8
-22 13 -22 5 0 9 -9 9 -20 0 -11 5 -20 10 -20 6 0 10 -9 10 -20 0 -11 5 -20
11 -20 6 0 9 -6 7 -12 -3 -7 1 -19 9 -26 7 -8 11 -18 8 -23 -4 -5 -2 -9 4 -9
6 0 8 -7 5 -15 -5 -11 -10 -13 -19 -5 -9 8 -15 8 -20 0 -3 -5 -17 -10 -31 -10
-14 0 -23 3 -20 8 2 4 -14 7 -37 7 -23 -1 -52 5 -64 13 -13 8 -23 10 -23 6 0
-5 -4 -4 -8 1 -11 16 -88 48 -119 49 -15 0 -31 5 -35 10 -9 13 -249 11 -274
-1 -10 -6 -29 -9 -41 -7 -13 2 -23 -1 -23 -6 0 -6 -13 -10 -30 -10 -16 0 -30
-4 -30 -10 0 -5 -9 -10 -21 -10 -11 0 -17 -4 -14 -10 3 -5 -3 -10 -14 -10 -10
0 -21 -5 -23 -10 -2 -6 -12 -4 -26 5 -17 13 -20 20 -12 34 5 10 7 21 5 23 -8
8 117 128 132 128 7 0 13 5 13 10 0 6 6 10 14 10 7 0 19 7 26 15 7 8 21 15 31
15 11 0 19 5 19 10 0 6 11 10 25 10 14 0 25 6 25 13 0 8 4 7 10 -3 6 -10 10
-11 10 -2z"/>
<path d="M230 3618 c0 -4 -6 -8 -13 -8 -24 0 -90 -73 -95 -105 -2 -11 -9 -23
-15 -27 -9 -6 -9 -8 0 -8 9 0 10 -7 3 -25 -7 -20 -6 -27 4 -31 8 -3 13 -13 11
-22 -1 -9 3 -28 10 -42 7 -14 10 -31 7 -39 -3 -8 0 -11 7 -7 7 5 11 -3 11 -21
0 -16 5 -34 12 -41 7 -7 9 -12 6 -12 -4 0 0 -16 8 -35 8 -19 11 -35 7 -35 -5
0 -2 -4 6 -9 7 -5 14 -20 14 -35 0 -14 3 -26 8 -26 5 0 9 -11 9 -25 0 -14 4
-25 9 -25 5 0 11 -12 14 -27 11 -59 17 -78 27 -81 6 -2 7 -8 4 -13 -3 -6 0
-17 8 -26 11 -14 11 -16 -1 -9 -9 6 -8 1 3 -16 9 -14 13 -28 10 -31 -4 -4 -2
-12 3 -19 6 -7 18 -38 28 -68 10 -30 21 -59 26 -65 5 -5 9 -22 9 -38 0 -16 4
-26 10 -22 6 4 10 -5 10 -19 0 -14 5 -26 11 -26 5 0 8 -4 5 -8 -2 -4 4 -28 15
-52 11 -24 20 -53 21 -66 1 -12 6 -20 10 -18 4 3 8 -7 8 -21 0 -14 4 -24 9
-21 5 4 8 -2 6 -11 -1 -10 4 -26 12 -35 9 -10 13 -24 10 -32 -3 -8 1 -17 8
-20 8 -3 12 -12 9 -21 -3 -8 -1 -15 5 -15 6 0 11 -9 11 -21 0 -11 4 -17 10
-14 5 3 10 -2 11 -12 0 -10 9 -31 20 -48 11 -16 22 -38 25 -47 4 -10 11 -18
17 -18 6 0 7 -3 4 -7 -4 -3 4 -25 18 -48 13 -23 21 -45 18 -49 -3 -3 1 -6 10
-6 10 0 14 -5 11 -15 -4 -8 -2 -15 3 -15 5 0 16 -16 23 -35 8 -20 20 -41 27
-47 7 -5 10 -14 7 -19 -3 -5 0 -9 7 -9 7 0 3 -10 -9 -23 -12 -13 -22 -29 -22
-35 0 -7 -3 -12 -8 -12 -4 0 -13 -9 -20 -21 -11 -17 -11 -20 0 -14 7 4 2 -2
-11 -13 -15 -12 -21 -24 -16 -32 5 -9 4 -11 -3 -6 -7 4 -12 3 -12 -2 0 -4 -9
-18 -21 -31 -12 -12 -19 -25 -16 -27 3 -3 -5 -15 -17 -28 -36 -38 -56 -66 -56
-77 0 -5 -5 -7 -12 -3 -7 4 -8 3 -4 -4 4 -6 -1 -20 -11 -30 -10 -10 -19 -25
-21 -33 -2 -7 -7 -16 -11 -19 -10 -8 -45 -64 -46 -73 0 -5 -8 -14 -17 -21 -9
-7 -18 -19 -20 -27 -2 -8 -10 -21 -19 -29 -9 -8 -19 -25 -23 -37 -4 -13 -12
-23 -17 -23 -5 0 -9 -7 -9 -16 0 -8 -5 -12 -10 -9 -6 4 -10 3 -9 -2 1 -4 1
-19 0 -33 -1 -20 -3 -22 -11 -10 -8 13 -10 12 -11 -5 -1 -11 -1 -23 -1 -27 1
-3 -5 -12 -13 -18 -8 -7 -15 -25 -15 -41 0 -15 -5 -31 -10 -34 -13 -8 -13
-165 0 -165 6 0 10 -7 10 -16 0 -40 101 -136 132 -126 4 1 8 -2 8 -8 0 -5 14
-10 31 -10 16 0 28 -3 25 -8 -6 -11 564 -8 589 3 23 10 63 45 52 45 -4 0 -3 9
3 19 7 14 7 28 -2 48 -25 57 -19 55 -293 55 -186 0 -255 3 -255 11 0 8 -3 9
-8 2 -10 -16 -54 -17 -45 -2 4 7 -2 5 -12 -3 -11 -9 -16 -10 -11 -2 5 8 0 12
-17 12 -14 0 -28 8 -32 17 -10 25 -5 117 7 124 5 3 10 10 10 15 3 25 11 43 19
38 5 -3 9 4 9 15 0 12 5 21 10 21 6 0 10 9 10 20 0 11 4 20 10 20 5 0 17 16
26 35 9 19 20 35 25 35 5 0 9 5 9 10 0 6 9 20 20 32 10 12 17 24 15 28 -2 3 5
13 16 20 10 8 19 21 19 29 0 7 8 21 19 30 10 9 21 26 25 39 4 12 12 22 17 22
5 0 9 7 9 16 0 8 5 12 10 9 6 -3 10 1 10 9 0 8 7 22 16 30 8 9 13 16 9 16 -3
0 6 12 20 27 14 15 25 33 25 40 0 6 4 13 8 15 4 2 18 18 31 37 l24 33 15 -28
c8 -16 14 -30 13 -32 -1 -1 5 -10 14 -18 8 -9 15 -21 15 -28 0 -6 9 -18 19
-26 11 -7 18 -17 15 -21 -2 -4 2 -13 9 -21 7 -7 15 -17 17 -23 1 -5 14 -27 26
-47 13 -21 24 -42 24 -48 0 -5 5 -10 10 -10 6 0 10 -7 10 -15 0 -8 5 -15 12
-15 6 0 8 -3 5 -6 -4 -4 2 -19 13 -34 11 -15 17 -30 14 -32 -3 -3 7 -15 22
-27 15 -11 24 -21 20 -21 -4 0 -1 -7 8 -15 8 -8 22 -15 30 -15 9 0 16 -5 16
-10 0 -6 28 -10 70 -9 39 1 70 5 70 10 0 5 7 9 16 9 19 0 74 58 74 78 0 7 4
11 8 8 13 -8 13 106 0 136 -7 15 -16 28 -20 28 -5 0 -7 3 -6 8 4 11 -30 90
-42 97 -5 3 -10 17 -10 31 0 13 -4 24 -10 24 -5 0 -10 9 -10 21 0 11 -7 27
-15 36 -8 8 -13 19 -10 24 4 5 1 9 -6 9 -7 0 -9 3 -6 6 3 4 0 16 -8 26 -7 11
-11 27 -8 36 4 10 2 13 -5 8 -8 -4 -12 0 -12 11 0 11 -5 24 -12 31 -7 7 -9 12
-4 12 4 0 0 7 -8 16 -9 8 -14 20 -10 25 3 5 -1 12 -9 15 -9 3 -13 13 -10 25 3
10 0 19 -6 19 -6 0 -11 9 -11 20 0 11 -4 20 -10 20 -5 0 -10 7 -10 15 0 8 -4
15 -10 15 -5 0 -10 5 -10 11 0 5 5 7 10 4 6 -4 -1 10 -15 31 -23 33 -30 55
-26 77 1 5 -3 6 -9 2 -5 -3 -10 3 -10 14 0 11 -4 23 -10 26 -5 3 -10 15 -10
26 0 13 -4 18 -12 13 -6 -4 -8 -3 -5 3 7 12 -14 73 -25 73 -4 0 -8 9 -8 20 0
11 -4 20 -10 20 -5 0 -10 9 -10 20 0 11 -5 20 -11 20 -5 0 -7 5 -4 10 3 6 -1
17 -9 26 -9 9 -14 20 -11 25 4 5 1 9 -4 9 -6 0 -11 12 -11 26 0 14 -4 23 -10
19 -6 -4 -10 5 -10 19 0 14 -5 26 -11 26 -5 0 -7 5 -4 10 3 6 -1 13 -10 16
-12 5 -13 9 -5 14 8 5 7 11 -4 23 -9 8 -16 25 -16 36 0 12 -4 21 -10 21 -5 0
-10 9 -10 20 0 11 -4 20 -10 20 -5 0 -10 6 -10 13 0 7 -18 50 -40 95 -49 99
-64 134 -62 145 1 4 -3 7 -8 7 -6 0 -10 9 -10 19 0 11 -4 23 -10 26 -5 3 -10
15 -10 26 0 10 -5 19 -12 19 -6 0 -8 3 -5 6 3 4 1 16 -5 28 -7 11 -13 23 -14
26 -1 3 -5 15 -9 28 -4 12 -11 22 -16 22 -5 0 -9 9 -9 20 0 11 -5 20 -11 20
-5 0 -8 4 -4 9 3 5 -2 16 -10 25 -8 8 -14 19 -13 23 1 4 -3 18 -10 29 -6 12
-8 24 -5 28 3 3 1 6 -5 6 -7 0 -12 9 -12 21 0 11 -4 17 -10 14 -5 -3 -10 3
-10 14 0 12 -6 21 -12 21 -9 0 -8 4 2 10 8 5 10 10 4 10 -10 0 -29 47 -24 59
1 2 -3 7 -10 11 -6 4 -12 16 -13 28 0 11 -5 18 -9 16 -4 -3 -8 3 -8 13 0 26
-70 98 -105 108 -39 12 -125 13 -125 3z"/>
</g>
</svg>
