<?xml version="1.0" standalone="no"?><!DOCTYPE svg PUBLIC "-//W3C//DTD SVG 1.1//EN" "http://www.w3.org/Graphics/SVG/1.1/DTD/svg11.dtd"><svg t="1772539208637" class="icon" viewBox="0 0 1024 1024" version="1.1" xmlns="http://www.w3.org/2000/svg" p-id="2537" xmlns:xlink="http://www.w3.org/1999/xlink" width="200" height="200"><path d="M540.88 477.16v-1.01c-0.21 0.34-0.5 0.68-0.68 1.01h0.68zM719.95 455.13v34.79c6.65-1.1 16.76-1.11 17.17-3.12 1.78-8.62 1.97-18.13-0.07-26.65-0.63-2.62-10.14-3.13-17.1-5.02z" fill="currentColor" p-id="2538"></path><path d="M512 64.4C265.2 64.4 64.4 265.2 64.4 512S265.2 959.6 512 959.6 959.6 758.8 959.6 512 758.8 64.4 512 64.4z m285.63 351.06c8.8-8.33 23.83-4.1 30.42 6.5 6.85 11.01 3.32 26.35-8.85 30.8-8.2 3-17.98 3.46-26.69 2.32-3.15-0.41-5.26-8.8-8.96-15.61 4.85-8.61 7.8-18.07 14.08-24.01z m-383.67 58.41c10.56-23.82 22.4-47.09 34-70.43 1.15-2.31 4.31-5.02 6.63-5.12 12.4-0.51 24.84-0.24 39.68-0.24-10.4 21.46-19.69 40.62-27.96 57.68 15.86-0.85 31.27-1.68 50.57-2.72-13.37 27.11-25.28 51.24-38.47 77.96 10.6 0.64 17.42 1.05 26.93 1.62-6.22 12.23-10.81 23.81-17.65 33.86-5.37 7.89-54.75 3.56-58.83-4.99-2.27-4.75-1.85-11.77-0.34-17.11 2.23-7.85 6.45-15.16 9.96-22.63 3.3-7 6.79-13.92 11.4-23.33-8.18 0-14.52 0.56-20.72-0.11-15.01-1.62-21.27-10.76-15.2-24.44zM192.75 561.2c-2.15-5.48 2.13-13.29 2.77-20.1 2.4-25.54 4.88-51.08 6.53-76.67 0.56-8.75 4.17-11.12 12.17-10.78 10.76 0.45 21.56 0.11 35.64 0.11-8.55 52.53 1.19 106.16-34.1 153.43-8.64-16.8-17.09-30.9-23.01-45.99z m126.39 24.98c-0.12 27.58-17.62 42.78-43.58 38.76-17.23-2.67-28.23-17.02-26.95-36.65 7.93-0.39 16.04-0.8 26.07-1.3V398.72h43.61c0.36 4.23 0.9 7.6 0.9 10.98 0.05 58.83 0.21 117.65-0.05 176.48z m58.1 20.6c-15.69-20.01-22.19-40.64-24.7-62.23-3.1-26.73-4.14-53.69-6.52-80.51-0.64-7.21 0.99-10.57 8.79-10.33 42.85 1.28 32.39-7.49 37.25 32.92 2.74 22.79 5.05 45.63 7.43 68.46 0.26 2.48 0.44 5.39-0.57 7.52-6.65 14.06-13.65 27.94-21.68 44.17z m85.43 18.43c-20.64 0.17-41.29 0.12-61.93 0.12-0.46-1.63-0.93-3.27-1.39-4.9 6.33-12.35 12.47-24.81 19.16-36.97 1.19-2.16 4.66-4.5 6.97-4.4 19.89 0.92 39.76 2.39 61.99 3.85-7.12 13.79-13.75 26.78-20.6 39.66-0.7 1.29-2.76 2.62-4.2 2.64z m172.66-33.19c-0.99 40.85 6.26 33.14-31.96 33.71-33.54 0.5-67.1 0.14-100.65 0.07-5.1-0.01-10.19-0.47-17.79-0.85 7.09-14.16 12.81-26.67 19.68-38.51 1.63-2.82 7.03-4.56 10.83-4.79 10.34-0.65 20.74-0.22 32.03-0.22V458.39c-8.95-1.92-23.93-2.17-24.83-5.86-3.07-12.57-1.17-26.36-1.17-40.88 31.27 0 61.27-0.19 91.27 0.34 2.63 0.05 5.44 4.67 7.62 7.57 0.84 1.12 0.21 3.38 0.18 5.13-0.12 9.14 2.9 20.41-1.37 26.77-3.61 5.38-15.69 5.08-25.04 7.57v122.4c10.78 0 20.71 0.35 30.61-0.11 8-0.39 10.78 2.91 10.59 10.7z m150.44 33.34c-24.11-0.72-38.61-13.95-39.33-37.54h40.07c0-15.84 0.82-30.12-0.56-44.17-0.36-3.67-7.44-9.26-11.7-9.52-17.71-1.08-35.52-0.45-55-0.45 0 25.85 0.01 50.54 0 75.24-0.01 16.88-0.03 17.08-17.32 16.93-32.2-0.28-26.89 3.65-27.29-26.67-0.28-21.29-0.05-42.59-0.05-65.73-11.63 0-21.95-0.3-32.24 0.1-7.41 0.29-9.61-2.84-10.03-9.98-2.02-34.24-2.2-34.22 31.24-34.65 3.01-0.04 6.02-0.36 10.47-0.63v-29.16c-1.23-0.93-1.86-1.81-2.58-1.89-24.52-2.96-24.52-2.95-24.54-28.45v-16.71h26.07c1.08-4.82 1.9-8.5 2.96-13.23h41.89c0.82 3.74 1.69 7.76 2.7 12.37 20.39-0.12 42.26 1.31 52.04 20.59 8.25 16.27 9.25 36.21 13.94 56.63-1.29-0.42 0.7 0.49 2.79 0.87 32.16 5.86 42.33 17.88 42.37 50.27 0.02 16.57 0.59 33.17-0.23 49.7-1.19 23.09-19.18 36.87-45.67 36.08z" fill="currentColor" p-id="2539"></path></svg>