<?xml version="1.0" standalone="no"?><!DOCTYPE svg PUBLIC "-//W3C//DTD SVG 1.1//EN" "http://www.w3.org/Graphics/SVG/1.1/DTD/svg11.dtd"><svg t="1772539045220" class="icon" viewBox="0 0 1024 1024" version="1.1" xmlns="http://www.w3.org/2000/svg" p-id="4322" xmlns:xlink="http://www.w3.org/1999/xlink" width="200" height="200"><path fill="currentColor" d="M176.768 85.333333C126.293333 85.333333 85.333333 126.293333 85.333333 176.768v670.464C85.333333 897.706667 126.293333 938.666667 176.768 938.666667h670.464C897.706667 938.666667 938.666667 897.706667 938.666667 847.232V176.768C938.666667 126.293333 897.706667 85.333333 847.232 85.333333H176.768zM213.333333 213.333333h186.581334l139.093333 202.325334L692.650667 213.333333h92.245333l-202.581333 265.258667L810.666667 810.666667h-183.253334l-142.165333-205.013334L328.746667 810.666667H239.104l202.965333-267.349334L213.333333 213.333333z m109.482667 59.733334l331.264 477.866666h47.573333l-328.533333-477.866666H322.773333z" p-id="4323"></path></svg>