<?xml version="1.0" standalone="no"?><!DOCTYPE svg PUBLIC "-//W3C//DTD SVG 1.1//EN" "http://www.w3.org/Graphics/SVG/1.1/DTD/svg11.dtd"><svg t="1772539116523" class="icon" viewBox="0 0 1024 1024" version="1.1" xmlns="http://www.w3.org/2000/svg" p-id="6782" xmlns:xlink="http://www.w3.org/1999/xlink" width="200" height="200"><path d="M675.1 368.1c4.2 0 8.4 0.1 12.5 0.3-21.9-117.8-144.9-208.1-293.3-208.1-163.9 0-296.8 110-296.8 245.6 0 79.5 45.7 150.3 116.5 195.1 0.9 0.6 2.7 1.7 2.7 1.7L188 691.6l107.3-54.1s3.4 1 5 1.4c29.5 8.1 61.1 12.5 93.9 12.5 6.7 0 13.3-0.3 19.9-0.6-6.1-18.7-9.4-38.3-9.4-58.6 0-123.7 121.1-224.1 270.4-224.1z m-177.6-86.7c23 0 41.6 17.9 41.6 39.9s-18.6 39.9-41.6 39.9-41.7-17.9-41.7-39.9 18.6-39.9 41.7-39.9z m-206.6 79.9c-23 0-41.7-17.9-41.7-39.9 0-22.1 18.6-39.9 41.7-39.9 23 0 41.7 17.9 41.7 39.9s-18.6 39.9-41.7 39.9zM928 593.8c0-114.6-112.2-207.5-250.7-207.5s-250.8 92.9-250.8 207.5 112.3 207.5 250.8 207.5c27.7 0 54.4-3.7 79.3-10.6 1.4-0.4 4.3-1.2 4.3-1.2l90.6 45.7-24.2-75.1s1.5-1 2.3-1.4c59.8-38 98.4-97.7 98.4-164.9z m-338-37.7c-19.4 0-35.2-15.1-35.2-33.8 0-18.6 15.8-33.7 35.2-33.7 19.5 0 35.2 15.1 35.2 33.7 0.1 18.6-15.7 33.8-35.2 33.8z m174.5 0c-19.4 0-35.2-15.1-35.2-33.8 0-18.6 15.7-33.7 35.2-33.7 19.5 0 35.2 15.1 35.2 33.7s-15.7 33.8-35.2 33.8z" fill="currentColor" p-id="6783"></path></svg>