<svg width="256" height="256" viewBox="0 0 256 256" fill="none" xmlns="http://www.w3.org/2000/svg">
  <path d="M56 206V68C56 50 70 36 88 36H154C186 36 210 58 210 86C210 113 188 132 154 138L150 138V114H154C172 112 182 104 182 90C182 76 172 68 154 68H90C82 68 76 74 76 82V206H56Z" fill="#1C3A2A"/>
  <path d="M126 206H156C184 206 204 186 204 158C204 130 184 110 156 110H144V88H158C198 88 228 118 228 158C228 198 198 228 158 228H98L126 206Z" fill="#1C3A2A"/>
  <path d="M20 216C88 194 151 158 206 110L216 122C159 172 94 210 22 234L20 216Z" fill="#1C3A2A"/>
  <path d="M202 104L236 96L221 128L216 116L202 104Z" fill="#1C3A2A"/>
  <circle cx="238" cy="88" r="10" fill="#F28F16"/>
</svg>
