<?xml version="1.0" standalone="no"?>
<!DOCTYPE svg PUBLIC "-//W3C//DTD SVG 20010904//EN"
 "http://www.w3.org/TR/2001/REC-SVG-20010904/DTD/svg10.dtd">
<svg version="1.0" xmlns="http://www.w3.org/2000/svg"
 width="1024.000000pt" height="1024.000000pt" viewBox="0 0 1024.000000 1024.000000"
 preserveAspectRatio="xMidYMid meet">
<metadata>
Created by potrace 1.14, written by Peter Selinger 2001-2017
</metadata>
<g transform="translate(0.000000,1024.000000) scale(0.100000,-0.100000)"
fill="#000000" stroke="none">
<path d="M6688 8621 c-6 -10 -17 -17 -24 -14 -6 2 -15 0 -18 -6 -4 -6 -13 -8
-21 -4 -10 3 -15 -1 -15 -13 0 -16 -2 -17 -10 -4 -8 13 -10 12 -10 -2 0 -10
-3 -17 -7 -17 -5 1 -15 1 -23 0 -13 -1 -13 -3 -1 -10 12 -8 9 -11 -12 -16 -14
-4 -29 -14 -32 -23 -3 -10 -24 -30 -46 -45 -23 -16 -38 -22 -34 -15 3 7 -5 0
-19 -17 -14 -16 -26 -27 -26 -22 0 4 -9 -2 -20 -13 -11 -11 -20 -24 -20 -30 0
-5 -6 -10 -14 -10 -8 0 -18 -9 -21 -20 -3 -11 -11 -20 -16 -20 -6 0 -17 -7
-26 -15 -8 -8 -19 -12 -25 -9 -6 4 -9 3 -6 -2 3 -5 -4 -18 -15 -29 -11 -11
-16 -13 -12 -5 7 12 6 13 -7 3 -8 -7 -18 -9 -22 -5 -4 4 -7 3 -6 -3 4 -18 0
-38 -6 -32 -9 8 -44 -25 -37 -36 3 -5 0 -8 -7 -5 -7 2 -28 -10 -46 -28 -17
-18 -34 -30 -37 -28 -3 3 -23 -12 -45 -33 -62 -59 -103 -93 -113 -93 -5 0 -8
-6 -6 -12 1 -7 -4 -12 -10 -11 -7 2 -13 -5 -13 -15 0 -14 -2 -15 -10 -2 -8 12
-10 12 -10 1 0 -9 -10 -12 -35 -9 -19 2 -35 0 -35 -4 0 -11 -23 -6 -32 7 -5 6
-8 5 -8 -3 0 -7 -4 -10 -10 -7 -5 3 -10 1 -10 -5 0 -6 -5 -8 -10 -5 -6 4 -7
11 -4 17 4 6 -2 6 -15 -1 -11 -7 -21 -14 -21 -17 0 -3 5 -2 12 2 7 4 8 3 4 -5
-6 -9 -11 -9 -22 0 -11 9 -14 9 -14 0 0 -7 -4 -9 -10 -6 -5 3 -10 1 -10 -6 0
-8 -3 -9 -13 0 -8 6 -17 8 -20 4 -4 -3 -18 -8 -32 -9 -17 -2 -23 1 -18 9 5 9
3 9 -8 1 -8 -5 -32 -12 -54 -13 -22 -2 -41 -7 -43 -12 -2 -5 -8 -9 -13 -9 -6
0 -7 6 -4 13 4 6 1 5 -7 -4 -8 -10 -24 -14 -40 -12 -18 2 -28 -1 -28 -9 0 -9
-3 -9 -10 2 -9 13 -10 13 -10 0 0 -12 -2 -12 -9 -2 -11 17 -21 17 -32 0 -5 -7
-9 -8 -9 -3 0 16 -53 9 -92 -12 -4 -2 -5 4 -2 14 3 10 2 14 -3 8 -4 -5 -15
-11 -23 -13 -8 -2 -17 -8 -18 -13 -2 -5 -8 -7 -13 -3 -5 3 -9 1 -9 -5 0 -6 -6
-8 -14 -5 -8 3 -24 -4 -35 -15 -12 -12 -25 -21 -31 -21 -5 0 -10 -7 -10 -16 0
-8 -4 -12 -10 -9 -5 3 -10 -1 -10 -10 0 -9 -4 -14 -9 -10 -5 3 -12 1 -16 -5
-3 -5 0 -10 7 -10 9 0 9 -3 -2 -10 -8 -5 -10 -10 -5 -10 6 0 2 -7 -9 -15 -11
-8 -16 -21 -13 -30 4 -8 1 -15 -5 -15 -8 0 -9 -3 -2 -10 6 -6 8 -31 4 -60 -4
-28 -2 -54 3 -59 7 -7 5 -12 -6 -16 -9 -4 -14 -15 -12 -26 2 -10 -1 -22 -7
-25 -7 -5 -8 -2 -3 6 5 9 4 11 -4 6 -9 -6 -9 -11 0 -22 9 -11 9 -14 0 -14 -7
0 -9 -5 -5 -12 10 -15 12 -58 4 -63 -4 -2 -6 -25 -5 -50 1 -34 -3 -45 -14 -45
-11 0 -10 -4 5 -16 10 -8 14 -13 7 -10 -6 4 -14 2 -18 -4 -3 -5 0 -10 7 -10 8
0 6 -5 -5 -11 -14 -8 -15 -14 -6 -31 8 -15 8 -19 0 -13 -8 4 -10 -2 -7 -19 2
-14 -1 -27 -7 -30 -8 -3 -7 -5 2 -5 10 -1 11 -4 2 -15 -8 -10 -9 -16 -1 -21 6
-3 7 -11 4 -17 -12 -19 -12 -78 0 -71 6 4 5 -1 -2 -10 -8 -9 -11 -20 -8 -26 3
-5 -1 -11 -9 -15 -12 -4 -13 -11 -5 -32 10 -25 9 -26 -6 -13 -16 12 -16 12 -8
-4 14 -24 6 -79 -10 -70 -6 4 -5 0 2 -9 11 -14 9 -19 -15 -36 -21 -15 -33 -18
-46 -11 -10 6 -17 7 -16 2 3 -19 -2 -25 -14 -15 -9 8 -17 8 -27 0 -12 -8 -12
-9 3 -4 10 3 16 2 13 -3 -9 -13 -65 -19 -70 -7 -3 8 -5 8 -5 0 -1 -7 -12 -9
-28 -6 -23 4 -25 2 -19 -14 6 -15 5 -16 -5 -7 -10 10 -15 9 -26 -5 -9 -10 -12
-11 -7 -2 7 13 5 13 -8 2 -12 -9 -18 -10 -23 -2 -5 7 -11 8 -19 1 -6 -6 -21
-10 -31 -10 -42 -1 -55 -5 -55 -16 0 -7 -20 -11 -54 -11 -40 1 -52 -2 -45 -11
7 -8 5 -10 -10 -6 -13 3 -21 1 -21 -6 0 -7 -4 -9 -10 -6 -5 3 -10 2 -10 -3 0
-5 -10 -8 -22 -7 -22 2 -78 -47 -78 -68 0 -5 -6 -7 -14 -4 -10 4 -13 -3 -11
-24 2 -19 -2 -29 -11 -29 -8 0 -11 -6 -7 -17 4 -9 2 -14 -3 -10 -6 3 -11 -3
-11 -14 -1 -12 3 -17 10 -13 9 5 9 4 0 -6 -8 -9 -9 -19 -3 -31 7 -12 7 -20 0
-24 -6 -4 -4 -12 5 -21 8 -9 13 -20 10 -25 -4 -5 -1 -9 4 -9 6 0 11 -9 11 -20
0 -11 7 -20 16 -20 8 0 13 -3 11 -7 -6 -10 19 -34 27 -26 3 4 6 1 6 -5 0 -10
38 -28 53 -24 4 1 7 -3 7 -9 0 -6 5 -7 13 -2 17 11 37 13 37 3 0 -10 20 -8 38
3 7 5 12 3 12 -4 0 -9 3 -9 14 0 10 9 16 9 21 1 4 -6 12 -7 18 -2 7 4 19 8 27
7 8 0 20 5 25 13 9 10 29 15 108 21 5 1 5 6 1 12 -4 8 0 8 15 0 17 -9 21 -9
19 1 -2 8 4 12 15 10 9 -2 17 3 17 10 0 10 2 10 9 -1 5 -8 11 -9 15 -3 3 6 16
8 28 4 16 -4 19 -2 13 9 -8 12 -6 12 8 0 15 -12 17 -11 17 3 0 10 4 14 10 11
5 -3 18 -1 29 5 14 7 22 7 27 -1 5 -9 11 -7 20 5 8 12 14 14 19 6 5 -8 12 -5
22 7 8 10 12 12 8 6 -3 -7 -1 -13 4 -13 6 0 11 4 11 9 0 11 38 24 63 21 10 -1
24 4 32 10 9 7 15 8 19 1 4 -6 13 -8 21 -5 8 4 12 11 8 18 -4 6 0 6 9 -2 9 -7
18 -9 20 -3 3 10 21 14 55 12 20 -1 21 -5 19 -68 -2 -38 2 -74 8 -82 8 -11 8
-13 -1 -7 -8 4 -13 2 -13 -8 0 -8 5 -18 10 -21 6 -4 7 -11 4 -17 -11 -18 -13
-78 -2 -78 5 0 6 -6 1 -12 -11 -19 -10 -62 2 -70 6 -5 4 -8 -5 -8 -13 0 -13
-1 0 -10 11 -7 11 -10 2 -10 -8 0 -10 -6 -5 -17 10 -23 10 -54 -1 -72 -5 -8
-3 -17 5 -22 12 -7 12 -9 0 -9 -10 0 -11 -3 -2 -14 9 -11 9 -16 0 -21 -8 -6
-7 -10 2 -16 9 -6 10 -12 4 -16 -14 -11 -17 -40 -5 -48 7 -4 7 -12 0 -26 -8
-14 -7 -19 1 -19 9 0 9 -3 0 -14 -9 -11 -9 -15 1 -19 9 -4 10 -6 1 -6 -27 -2
37 -91 65 -91 7 0 10 -4 7 -10 -4 -6 12 -9 43 -7 52 4 76 13 67 28 -3 5 1 6 9
3 8 -3 24 -1 35 6 16 8 21 8 21 -1 0 -8 7 -7 23 3 22 15 66 29 100 33 11 1 23
8 28 16 5 8 9 11 9 6 0 -4 16 -1 35 8 20 8 33 10 30 5 -3 -6 3 -10 14 -10 12
0 21 -6 21 -14 0 -8 7 -16 15 -20 8 -3 15 -15 15 -26 0 -11 5 -20 12 -20 6 0
8 -3 5 -6 -4 -4 3 -15 15 -25 11 -11 17 -19 12 -19 -5 0 -1 -7 10 -15 11 -8
16 -21 13 -30 -4 -8 -1 -15 6 -15 7 0 18 -9 25 -21 11 -17 11 -20 0 -14 -7 3
-4 -2 7 -12 11 -10 21 -25 23 -33 2 -8 7 -17 11 -20 15 -11 -11 -70 -32 -70
-7 0 -18 -9 -25 -20 -7 -11 -21 -20 -32 -20 -11 0 -20 -5 -20 -11 0 -6 -7 -9
-15 -5 -9 3 -19 -3 -25 -15 -6 -11 -16 -17 -22 -13 -5 4 -13 2 -17 -3 -3 -5
-23 -22 -43 -37 -21 -16 -38 -35 -38 -43 0 -8 -4 -12 -8 -9 -8 5 -12 -7 -12
-39 0 -32 4 -45 13 -45 5 0 3 -8 -4 -17 -10 -12 -10 -15 -1 -9 13 8 92 -66 92
-87 0 -7 4 -6 10 3 8 13 10 12 10 -3 0 -10 5 -15 10 -12 6 3 10 1 10 -6 0 -13
78 -89 92 -89 4 0 8 -6 8 -12 0 -7 19 -29 41 -48 23 -19 50 -42 60 -51 11 -9
19 -22 19 -29 0 -7 3 -11 6 -7 8 8 44 -25 38 -35 -3 -5 -2 -7 3 -6 4 2 33 -23
64 -54 31 -32 59 -55 63 -51 3 3 6 1 6 -6 0 -7 5 -9 10 -6 6 4 9 1 8 -5 -2 -7
6 -17 17 -23 28 -18 45 -34 45 -46 0 -6 4 -11 10 -11 6 0 6 -9 0 -25 -5 -14
-6 -25 -1 -25 10 0 6 -43 -5 -61 -5 -8 -3 -9 5 -4 10 6 11 3 2 -14 -9 -16 -9
-21 0 -21 7 0 8 -7 4 -17 -9 -25 -12 -103 -3 -103 4 0 3 -11 -2 -24 -5 -13 -6
-26 -4 -29 3 -3 0 -16 -7 -29 -11 -21 -11 -22 4 -10 13 11 15 10 10 -7 -3 -12
-9 -21 -14 -21 -5 0 -9 -5 -9 -11 0 -5 5 -7 11 -3 6 3 4 -5 -6 -19 -12 -19
-17 -52 -18 -135 -1 -64 -6 -108 -11 -104 -5 3 -7 -2 -3 -11 3 -9 -1 -18 -10
-21 -12 -5 -13 -9 -4 -20 7 -9 8 -17 3 -20 -6 -3 -9 -22 -8 -41 1 -19 -3 -37
-9 -39 -5 -3 -4 -5 4 -5 11 -1 10 -5 -5 -17 -10 -8 -13 -13 -7 -9 9 4 11 1 7
-9 -3 -9 -10 -14 -14 -11 -4 3 -10 -2 -14 -10 -3 -8 -1 -17 5 -21 6 -3 6 -10
1 -17 -5 -7 -8 -22 -6 -34 2 -13 -1 -23 -6 -23 -6 0 -10 -7 -10 -15 0 -8 -4
-15 -9 -15 -6 0 -8 -10 -6 -22 3 -12 -1 -26 -8 -30 -9 -6 -8 -10 3 -18 13 -9
7 -14 -12 -11 -5 0 -8 -8 -8 -20 0 -11 -4 -18 -8 -15 -5 3 -6 -8 -4 -24 3 -21
-1 -32 -11 -36 -9 -3 -13 -12 -11 -19 3 -7 -5 -23 -18 -35 -21 -19 -21 -21 -3
-15 19 6 19 6 2 -8 -10 -8 -19 -24 -20 -35 0 -11 -5 -18 -9 -16 -4 3 -8 -2 -8
-10 0 -9 -5 -16 -12 -16 -6 0 -9 -3 -5 -6 3 -3 -5 -16 -19 -29 -13 -12 -24
-27 -24 -33 0 -6 -5 -14 -12 -18 -7 -5 -8 -3 -3 6 6 9 4 11 -4 6 -7 -5 -10
-14 -7 -22 3 -8 2 -14 -2 -14 -5 0 -17 -7 -28 -16 -10 -8 -13 -12 -5 -8 9 5
12 3 7 -4 -4 -7 -12 -12 -18 -12 -6 0 -25 -16 -44 -35 -18 -19 -37 -35 -43
-35 -6 0 -11 -7 -11 -16 0 -8 -4 -13 -9 -9 -6 3 -14 -3 -20 -12 -6 -10 -11
-13 -11 -8 0 6 -5 3 -10 -5 -9 -15 -13 -16 -45 -19 -8 0 -15 -8 -15 -17 0 -11
-9 -15 -32 -14 -18 1 -37 1 -43 0 -5 -1 -14 -2 -18 -1 -5 1 -6 -3 -2 -9 5 -9
-1 -12 -21 -9 -4 0 -11 -5 -15 -13 -7 -10 -9 -10 -9 2 0 13 -1 13 -10 0 -7
-11 -10 -11 -10 -2 0 9 -5 10 -19 2 -14 -7 -22 -7 -26 0 -4 6 -12 7 -18 3 -17
-11 -37 -13 -37 -4 0 4 -7 8 -15 8 -8 0 -12 -5 -8 -10 3 -5 -4 -6 -18 -1 -25
8 -27 8 -71 1 -16 -2 -28 0 -28 4 0 5 -10 5 -22 0 -13 -5 -33 -5 -46 0 -16 6
-21 5 -16 -2 4 -8 -1 -9 -16 -4 -35 11 -70 13 -64 4 3 -5 1 -9 -5 -9 -5 0 -13
5 -16 10 -4 6 -12 7 -18 3 -19 -12 -37 -12 -37 -2 0 6 -4 7 -10 4 -14 -9 -90
-13 -90 -5 0 4 -7 7 -15 7 -8 0 -12 -5 -8 -10 3 -5 -4 -6 -18 -1 -25 8 -27 8
-71 1 -16 -2 -28 0 -28 4 0 5 -10 5 -22 0 -13 -5 -33 -5 -46 0 -14 5 -21 5
-17 -1 7 -12 -48 -8 -57 5 -4 6 -8 2 -8 -7 0 -10 -3 -17 -7 -16 -14 4 -63 -45
-56 -55 4 -6 -1 -8 -11 -4 -14 6 -17 3 -12 -10 4 -10 4 -14 1 -11 -4 4 -18 3
-31 -2 -18 -7 -22 -6 -18 4 4 10 -2 12 -22 8 -18 -3 -25 -1 -20 6 7 12 -32 10
-53 -3 -9 -5 -12 -4 -8 1 3 6 -20 11 -56 12 -98 4 -112 6 -119 17 -5 6 -8 6
-8 -1 0 -6 -7 -11 -15 -11 -8 0 -15 4 -15 9 0 5 -4 6 -10 3 -5 -3 -10 -2 -10
4 0 6 -7 8 -15 5 -8 -4 -15 -2 -15 2 0 5 -34 9 -75 9 -43 0 -75 4 -75 10 0 6
-5 3 -10 -5 -8 -12 -10 -12 -11 5 0 11 -3 14 -6 8 -2 -7 -9 -13 -14 -13 -6 0
-7 6 -3 13 5 8 2 8 -9 -2 -14 -11 -20 -11 -34 0 -9 8 -28 14 -42 14 -14 0 -31
3 -36 7 -6 4 -17 3 -25 -2 -7 -4 -24 -4 -37 1 -16 6 -22 5 -18 -1 3 -6 2 -10
-4 -10 -5 0 -12 4 -16 9 -3 6 -19 4 -39 -4 -18 -8 -36 -11 -40 -8 -3 4 -6 0
-6 -8 0 -10 -13 -14 -50 -13 -43 0 -48 -2 -37 -15 9 -11 9 -13 0 -8 -6 4 -14
3 -18 -3 -4 -6 -11 -8 -16 -5 -5 4 -9 2 -9 -4 0 -7 -8 -7 -25 -1 -19 7 -23 6
-18 -5 3 -8 0 -16 -6 -16 -20 -3 -26 -5 -49 -17 -12 -7 -19 -18 -16 -24 4 -7
3 -8 -4 -4 -13 8 -73 -21 -85 -41 -5 -7 -12 -11 -16 -8 -5 2 -11 -5 -14 -17
-5 -17 -9 -19 -19 -10 -11 9 -22 3 -48 -26 -19 -20 -38 -36 -42 -34 -4 1 -8
-5 -8 -14 0 -8 -3 -13 -7 -11 -8 3 -81 -67 -84 -81 0 -4 -5 -6 -10 -4 -5 1 -9
-4 -9 -11 0 -7 -9 -18 -21 -25 -12 -8 -18 -19 -15 -28 3 -9 1 -12 -4 -9 -6 3
-14 -5 -19 -18 -5 -13 -16 -31 -25 -40 -9 -9 -17 -27 -18 -41 -1 -13 -5 -23
-9 -20 -14 8 -22 -32 -24 -113 -2 -57 1 -83 9 -83 6 0 4 -5 -4 -10 -13 -8 -12
-10 4 -10 12 0 16 -5 12 -15 -3 -8 -1 -15 5 -15 6 0 9 -7 5 -15 -3 -8 -1 -15
4 -15 12 0 70 -60 70 -72 0 -5 4 -6 10 -3 6 4 7 -1 3 -11 -5 -13 -3 -15 8 -9
12 8 12 6 1 -8 -8 -9 -10 -22 -6 -28 5 -8 3 -9 -6 -4 -10 6 -12 4 -7 -7 3 -9
0 -21 -6 -27 -8 -8 -7 -11 3 -11 13 0 13 -2 0 -10 -13 -8 -12 -10 3 -10 9 0
17 -5 17 -11 0 -5 -6 -7 -12 -4 -7 4 -6 1 2 -7 8 -7 15 -19 16 -25 2 -28 4
-33 15 -33 5 0 7 6 3 13 -5 8 -2 7 10 -2 13 -11 20 -11 28 -3 9 9 17 7 32 -6
11 -9 16 -11 12 -5 -4 8 -1 13 9 13 10 0 13 -5 9 -13 -5 -8 -2 -8 9 2 9 7 17
10 17 5 0 -5 5 -2 10 6 5 8 10 10 10 3 0 -7 17 -10 50 -8 29 2 48 0 45 -6 -3
-5 1 -6 9 -3 9 3 13 11 9 18 -5 8 -3 8 8 0 20 -15 69 -16 69 -1 0 8 3 8 8 2
10 -15 163 -15 155 -1 -3 6 0 5 8 -1 17 -17 43 -17 33 -1 -5 9 -2 9 9 -1 14
-11 20 -11 34 0 9 8 14 9 10 3 -5 -8 4 -12 28 -12 20 0 35 5 35 12 0 7 3 7 8
1 10 -14 49 -18 57 -5 3 6 12 7 18 3 19 -13 157 -11 157 1 0 8 3 8 8 1 10 -15
123 -15 115 -1 -4 6 1 5 10 -3 14 -11 20 -11 34 0 9 8 14 9 10 3 -5 -8 4 -12
28 -12 20 0 35 5 35 12 0 7 3 8 8 1 10 -15 123 -15 115 -1 -4 6 1 5 10 -3 14
-11 20 -11 34 0 9 8 14 9 10 2 -5 -7 4 -11 28 -11 20 0 35 5 35 12 0 7 3 7 8
1 11 -15 42 -18 57 -5 8 7 16 7 19 1 8 -13 76 -11 76 3 0 7 3 7 8 1 10 -14 32
-17 32 -4 0 5 4 8 9 4 5 -3 13 5 17 17 4 13 12 26 18 31 8 5 6 10 -4 17 -8 5
-10 10 -4 10 6 0 10 10 10 23 -1 19 4 22 42 22 23 0 42 4 42 8 0 5 5 5 11 2 6
-4 44 -7 85 -7 73 0 76 -1 93 -29 10 -16 21 -26 24 -22 4 3 7 -1 7 -10 0 -9 7
-17 15 -17 7 0 18 -6 22 -13 6 -9 92 -12 376 -12 202 0 367 4 367 9 0 5 6 3
14 -3 11 -9 15 -9 19 1 4 10 6 10 6 -1 1 -11 4 -11 16 -1 12 10 15 10 15 -1 0
-9 5 -7 11 5 9 15 13 16 20 5 7 -11 9 -10 9 3 0 12 5 15 17 11 9 -4 14 -2 10
3 -6 11 45 10 62 -1 6 -3 11 -1 11 5 0 6 5 8 10 5 6 -3 10 -1 10 6 0 7 3 10 6
6 4 -3 18 0 33 7 14 7 36 12 48 10 12 -2 23 3 27 12 3 8 10 12 16 9 5 -3 10
-1 10 6 0 8 5 7 17 -2 11 -10 14 -10 9 -1 -4 7 -2 12 6 13 31 2 51 9 68 24 10
9 24 14 29 10 6 -3 11 -1 11 5 0 6 5 8 10 5 6 -3 10 1 10 11 0 12 6 15 25 11
14 -2 23 -2 20 1 -6 7 37 38 48 34 5 -1 17 8 27 20 11 13 19 20 20 16 0 -4 14
6 30 22 17 17 35 30 41 30 6 0 7 5 3 12 -5 8 -2 9 9 5 12 -5 17 -1 17 13 0 10
4 22 10 25 6 3 7 -1 4 -12 -5 -17 -5 -17 6 0 6 10 27 33 46 52 19 19 31 35 27
35 -4 0 10 16 31 35 21 19 36 35 32 35 -3 0 3 9 14 20 11 11 20 25 20 31 0 5
5 7 11 3 7 -4 7 2 -1 17 -7 13 -9 21 -5 17 9 -8 35 14 28 25 -2 4 1 7 7 7 6 0
8 5 4 11 -4 7 4 20 17 31 13 11 17 16 9 12 -12 -6 -13 -4 -2 7 6 7 12 21 12
32 0 10 5 15 10 12 6 -3 11 -1 11 4 3 21 4 26 13 40 7 10 5 12 -5 6 -8 -4 -5
1 6 12 11 11 24 18 29 15 5 -3 6 0 2 7 -11 18 2 63 16 55 7 -5 9 2 6 20 -3 14
-1 29 4 32 4 3 6 10 3 15 -4 5 2 6 11 2 13 -5 16 -3 11 9 -3 9 0 19 7 21 9 3
12 15 9 31 -4 20 -1 26 13 26 16 0 17 2 4 10 -13 9 -13 10 0 10 11 0 15 11 15
37 0 27 4 38 15 38 11 0 15 11 15 42 -1 23 2 40 6 37 4 -2 11 1 16 8 11 17 43
19 37 3 -3 -7 0 -16 7 -21 8 -5 10 -3 4 6 -5 9 -4 11 3 6 9 -5 9 -13 2 -27 -8
-14 -7 -19 1 -19 8 0 7 -5 -2 -17 -9 -11 -10 -14 -2 -9 9 5 12 -1 9 -23 -2
-23 1 -31 13 -31 14 0 14 -2 1 -10 -13 -8 -12 -10 4 -10 20 0 20 0 0 -16 -10
-8 -14 -13 -7 -10 6 4 14 2 18 -4 3 -5 1 -10 -6 -10 -7 0 -8 -5 -3 -12 5 -7 9
-31 8 -53 0 -22 4 -43 10 -47 8 -5 7 -8 -1 -8 -6 0 -10 -8 -8 -17 2 -10 4 -18
5 -18 1 0 3 -8 5 -18 2 -9 0 -15 -5 -12 -10 6 -8 -15 3 -32 5 -8 3 -13 -3 -13
-6 0 -4 -7 5 -17 15 -15 15 -17 1 -25 -15 -8 -14 -13 6 -40 15 -22 17 -30 7
-26 -10 4 -15 0 -15 -12 0 -10 3 -17 7 -14 4 2 9 -3 12 -11 4 -10 1 -12 -11
-8 -14 6 -15 4 -5 -8 10 -12 10 -18 0 -28 -9 -10 -8 -11 7 -5 16 6 17 4 7 -14
-14 -27 -14 -35 2 -26 8 5 8 2 -2 -9 -11 -14 -11 -17 0 -17 10 -1 9 -3 -3 -10
-13 -8 -15 -17 -8 -39 5 -19 4 -33 -3 -41 -9 -10 -9 -11 2 -5 10 6 13 4 8 -7
-3 -9 0 -21 6 -28 9 -10 9 -11 0 -6 -6 3 -14 2 -18 -4 -3 -5 -1 -10 6 -10 7 0
4 -7 -7 -16 -10 -8 -13 -12 -6 -9 10 5 13 1 10 -16 -2 -13 -7 -27 -13 -31 -6
-5 -5 -8 3 -8 6 0 12 -5 12 -11 0 -5 -4 -8 -8 -5 -5 3 -9 -1 -9 -9 0 -8 5 -15
10 -15 5 0 5 -6 -2 -13 -8 -10 -7 -17 2 -27 7 -7 7 -10 1 -7 -8 5 -11 -16 -10
-66 1 -68 11 -101 29 -90 4 2 7 1 6 -4 -3 -20 2 -30 19 -31 9 -1 189 -3 400
-3 274 -1 382 -5 382 -13 0 -8 2 -8 8 0 10 16 624 16 634 0 6 -8 8 -8 8 0 0
16 462 16 472 0 6 -8 8 -8 8 0 0 16 310 16 310 0 0 -8 3 -8 8 0 10 16 361 16
381 0 11 -8 13 -8 8 0 -5 9 10 12 50 13 43 0 61 5 71 18 7 10 17 17 21 16 9
-2 10 5 14 67 2 25 -1 54 -6 64 -8 15 -6 18 7 13 13 -5 15 -3 7 11 -5 9 -7 29
-5 45 1 15 -2 27 -7 27 -6 0 -7 6 -2 12 12 20 13 41 1 55 -6 7 -6 13 -1 13 10
0 10 136 0 147 -4 3 -2 12 4 20 9 10 8 13 -1 13 -10 0 -10 3 0 15 10 12 10 15
0 15 -10 0 -10 3 0 15 8 9 9 15 2 15 -6 0 -9 9 -7 20 2 11 -2 25 -9 32 -18 19
-19 30 -4 39 8 5 9 9 2 9 -7 0 -14 13 -16 30 -3 16 -2 30 2 30 4 0 4 22 0 50
-4 29 -2 54 4 60 6 6 6 10 0 10 -5 0 -8 18 -8 40 1 22 -2 40 -7 40 -5 0 -9 5
-9 11 0 5 4 8 8 5 5 -3 9 1 9 9 0 8 -3 12 -7 10 -3 -2 -12 5 -19 17 -9 15 -10
18 0 13 8 -6 10 -4 3 6 -14 22 -14 70 -1 62 9 -5 9 -3 0 8 -6 8 -13 33 -16 57
-3 36 -2 40 11 29 13 -11 14 -9 2 10 -8 12 -18 19 -23 16 -5 -3 -7 6 -5 19 1
14 -3 33 -11 42 -10 12 -10 16 -1 16 10 0 10 3 1 14 -8 10 -9 16 -1 21 6 3 7
11 3 18 -4 6 -8 25 -10 41 -2 17 -7 32 -11 35 -12 9 -23 41 -13 41 9 0 8 31
-3 48 -4 6 -4 17 -1 22 3 6 -3 24 -15 40 -15 21 -17 30 -8 30 8 0 9 3 3 8 -5
4 -11 24 -11 46 -1 21 -7 42 -14 46 -9 6 -9 9 1 13 11 4 11 6 1 6 -7 1 -10 6
-7 11 3 5 -2 10 -12 10 -10 0 -14 4 -8 8 12 8 16 42 5 42 -11 0 -7 34 5 42 6
5 5 8 -4 8 -8 0 -11 7 -8 19 3 14 1 18 -9 14 -10 -4 -14 3 -14 22 0 17 -4 24
-12 19 -7 -5 -8 -3 -2 7 13 21 11 42 -6 59 -14 14 -14 14 0 5 8 -5 5 2 -8 17
-18 19 -20 27 -10 31 10 4 10 6 -1 6 -11 1 -11 4 -1 17 11 12 11 15 -1 12 -8
-2 -15 7 -17 20 -2 12 -7 22 -12 22 -5 0 -7 9 -5 20 2 10 -5 30 -16 45 -11 14
-17 25 -14 25 4 0 3 6 -3 13 -6 7 -7 18 -2 26 9 15 -10 41 -29 41 -5 0 -8 11
-5 25 3 16 -1 27 -10 31 -8 3 -17 12 -20 20 -4 10 -2 13 7 8 6 -4 3 3 -8 16
-11 13 -15 20 -8 17 7 -5 9 0 6 12 -3 11 -12 22 -20 25 -8 3 -11 10 -8 16 3 5
2 10 -2 10 -5 0 -9 10 -10 22 -1 11 -7 24 -13 28 -6 4 -12 19 -14 35 -2 15
-10 34 -20 40 -18 13 -23 30 -5 20 6 -4 5 2 -3 14 -7 12 -16 21 -21 21 -4 0
-5 5 -2 10 3 6 1 10 -5 10 -6 0 -8 5 -5 10 3 6 1 10 -5 10 -7 0 -9 7 -6 15 3
9 -1 18 -9 21 -8 4 -13 10 -10 14 3 5 1 11 -5 15 -6 4 -8 11 -5 16 4 5 1 9 -4
9 -6 0 -11 7 -11 15 0 8 -4 15 -10 15 -5 0 -10 7 -10 15 0 8 -9 24 -21 36 -11
11 -18 27 -15 34 2 7 -2 19 -9 25 -8 7 -12 17 -8 24 3 6 3 8 -1 4 -5 -4 -19 5
-32 19 -26 29 -31 38 -11 27 6 -5 0 8 -15 28 -16 20 -28 42 -28 48 0 6 -4 9
-9 6 -5 -3 -15 2 -22 11 -12 14 -12 16 1 9 9 -4 8 -2 -2 7 -10 8 -15 17 -11
21 4 3 -9 20 -28 38 -19 17 -27 28 -19 24 8 -4 6 0 -4 8 -14 12 -16 16 -5 16
8 0 2 10 -15 25 -16 14 -26 25 -23 25 4 0 -7 13 -23 28 -16 16 -27 32 -23 35
3 4 -1 7 -9 7 -11 0 -14 6 -11 18 3 12 -4 23 -22 32 -17 9 -24 19 -20 29 3 8
3 12 -1 9 -7 -8 -64 48 -64 63 0 5 -6 8 -12 6 -7 -1 -12 4 -11 11 2 6 -2 12
-8 12 -15 0 -39 26 -32 34 4 3 -1 6 -10 6 -8 0 -19 9 -22 20 -3 11 -11 20 -16
20 -6 0 -7 5 -4 10 3 6 -3 10 -14 10 -12 0 -20 4 -18 8 4 14 -125 132 -137
125 -6 -3 -8 -3 -4 2 8 9 -66 85 -83 85 -6 0 -9 6 -6 14 4 10 0 14 -12 11 -10
-2 -24 5 -32 16 -7 10 -22 19 -32 19 -10 0 -15 5 -12 10 3 6 -1 10 -10 10 -9
0 -14 4 -11 9 3 5 -4 11 -15 14 -11 3 -23 15 -26 26 -3 11 -9 19 -13 16 -4 -3
-10 6 -12 20 -5 22 -3 24 11 13 13 -11 13 -8 -2 15 -17 26 -17 27 0 27 15 0
15 2 3 9 -8 6 -18 7 -23 4 -5 -3 -3 5 5 16 11 18 11 23 -2 31 -11 7 -12 10 -2
10 10 0 10 4 -2 16 -19 19 -21 31 -3 16 10 -8 13 -6 13 8 0 10 -4 16 -8 14 -4
-3 -8 0 -8 5 0 6 6 11 13 11 8 0 9 2 1 8 -16 10 -26 115 -11 105 7 -4 7 0 -1
10 -8 9 -11 21 -8 26 4 5 2 13 -4 16 -8 5 -8 11 0 20 7 9 7 21 0 39 -6 18 -6
25 0 21 6 -3 10 -2 10 4 0 5 -5 13 -10 16 -8 5 -7 11 1 21 9 11 9 14 -1 14
-10 0 -10 3 -1 14 9 11 9 16 0 22 -8 4 -9 3 -5 -4 5 -8 1 -10 -9 -5 -13 4 -14
8 -4 14 8 4 10 11 7 15 -4 4 -3 15 2 25 8 13 6 20 -7 28 -14 8 -15 10 -3 11
13 0 13 1 0 10 -13 9 -13 10 0 10 9 0 11 3 5 8 -14 10 -14 82 -1 82 6 0 3 5
-6 11 -14 7 -15 15 -8 34 7 18 6 25 -2 25 -7 0 -3 6 7 14 18 13 18 13 -1 24
-12 7 -14 12 -5 12 10 0 11 3 2 13 -8 10 -7 17 1 25 8 8 9 12 1 12 -6 0 -9 9
-5 22 4 16 2 19 -9 13 -12 -8 -12 -6 0 8 7 9 11 23 8 31 -3 7 0 19 6 26 9 9 9
11 1 7 -7 -4 -15 0 -18 9 -3 8 -2 13 3 10 5 -3 12 1 15 9 3 9 -1 18 -9 22 -13
4 -13 8 -3 21 8 10 8 13 2 9 -7 -4 -15 0 -18 9 -4 10 -2 13 7 9 6 -4 4 0 -5 8
-10 8 -18 19 -18 26 0 6 -4 11 -10 11 -5 0 -7 7 -3 16 5 14 3 15 -14 6 -15 -9
-22 -7 -32 10 -11 17 -15 18 -22 7 -7 -12 -9 -12 -9 1 0 9 -3 11 -8 5 -10 -14
-55 -39 -47 -26 11 18 -3 12 -27 -11 -13 -13 -29 -23 -35 -24 -29 -2 -32 -5
-26 -21 4 -11 3 -14 -5 -9 -7 4 -12 2 -12 -3 0 -6 -3 -10 -7 -10 -20 3 -34 -2
-28 -10 3 -5 1 -12 -5 -16 -5 -3 -10 -1 -10 6 0 6 -12 -1 -27 -17 -17 -18 -28
-24 -31 -16 -2 7 -9 9 -15 6 -9 -5 -8 -3 0 6 8 9 9 19 2 32 -5 10 -7 23 -4 28
3 6 -2 10 -11 10 -10 0 -14 3 -11 7 4 3 1 13 -6 21 -10 13 -9 14 3 7 13 -8 12
-5 -1 15 -12 19 -14 29 -5 43 8 14 8 20 -4 27 -8 5 -11 10 -7 10 5 0 2 7 -7
15 -8 8 -13 24 -11 35 2 11 -1 22 -7 26 -6 4 -5 10 3 15 11 7 10 9 -4 9 -11 0
-15 5 -11 11 3 6 0 15 -7 20 -11 7 -10 11 6 23 15 11 22 11 27 3 5 -8 8 -6 8
6 0 10 4 16 9 12 5 -3 12 -1 16 5 3 5 20 10 36 10 19 0 28 4 23 11 -5 8 -1 8
13 0 14 -7 23 -7 31 1 9 9 12 9 12 -2 0 -9 5 -8 16 6 8 10 13 14 10 8 -3 -6 1
-11 9 -11 8 0 13 5 12 11 -1 6 4 10 11 8 6 -1 12 2 12 6 0 4 20 7 45 6 25 -1
43 2 40 6 -3 5 0 12 6 16 7 4 9 3 5 -4 -3 -6 -2 -13 4 -17 6 -3 10 4 11 17 0
13 3 18 5 11 3 -7 12 -9 20 -6 7 3 11 10 7 16 -4 6 -1 7 7 2 19 -11 60 -13 60
-2 0 4 5 5 10 2 6 -3 10 -1 10 4 0 6 9 11 21 11 12 0 17 4 13 11 -5 8 -1 8 14
0 14 -7 23 -8 27 -1 4 6 11 8 16 5 11 -8 51 19 42 28 -3 4 -1 7 6 7 13 0 61
48 61 61 0 5 6 9 14 9 10 0 13 11 11 35 -1 19 1 35 5 35 8 0 6 32 -3 47 -4 6
-3 15 3 18 8 5 7 11 -1 21 -6 8 -9 17 -6 20 2 3 -6 16 -19 29 -13 13 -24 31
-24 40 0 9 -9 15 -22 15 -19 0 -20 2 -8 10 13 8 12 10 -3 10 -10 0 -16 4 -13
9 4 5 -2 8 -11 6 -10 -1 -32 5 -49 15 -28 16 -32 16 -42 1 -10 -14 -11 -13 -5
4 3 11 3 17 -2 13 -4 -4 -14 -3 -22 4 -11 9 -13 8 -11 -2 2 -8 -3 -15 -9 -16
-7 -1 -18 -2 -24 -3 -5 0 -8 -5 -5 -10 3 -4 -7 -7 -22 -5 -14 1 -33 -3 -41 -9
-12 -9 -13 -9 -7 1 4 6 2 12 -3 12 -6 0 -11 -5 -11 -11 0 -8 -6 -7 -17 2 -9 8
-14 10 -11 4 3 -5 0 -16 -8 -23 -11 -10 -14 -10 -14 0 0 8 -3 9 -8 3 -4 -6
-27 -11 -52 -13 -25 -1 -46 -6 -48 -12 -2 -5 -9 -7 -15 -3 -6 4 -8 0 -4 -11 5
-13 3 -15 -11 -7 -10 5 -24 6 -31 1 -8 -4 -24 -7 -37 -5 -13 1 -24 -2 -24 -6
0 -5 -5 -9 -11 -9 -5 0 -7 6 -3 13 8 13 -26 -11 -37 -27 -4 -4 -9 -3 -13 2 -4
6 -13 9 -21 6 -8 -4 -12 -11 -9 -16 4 -6 -1 -6 -13 1 -11 6 -23 8 -25 5 -3 -2
-14 8 -24 22 -10 15 -27 34 -36 43 -10 8 -18 23 -18 31 0 9 -11 26 -25 38 -14
13 -23 26 -21 31 3 5 -2 15 -11 22 -14 12 -16 12 -8 -1 5 -9 5 -12 -1 -7 -5 5
-9 18 -9 30 -1 12 -6 21 -12 20 -6 -1 -16 11 -23 27 -7 17 -20 30 -29 31 -9 0
-11 3 -5 5 15 6 -6 54 -23 54 -7 0 -13 7 -13 15 0 8 -4 15 -9 15 -10 0 -27 39
-23 53 2 5 -6 11 -17 14 -12 3 -17 11 -14 19 3 9 0 14 -8 12 -7 -2 -18 7 -24
20 -5 12 -13 22 -17 22 -4 0 -5 7 -2 15 4 10 0 15 -12 15 -16 0 -17 2 -4 10
11 7 12 10 2 10 -7 0 -20 7 -28 15 -9 8 -12 15 -8 15 4 0 -3 9 -16 20 -13 11
-20 20 -15 20 4 0 2 7 -5 15 -7 8 -9 15 -4 15 5 1 -2 7 -16 15 -14 7 -24 16
-22 19 6 14 1 27 -8 21 -5 -3 -10 3 -10 13 0 11 -7 25 -15 32 -8 7 -12 17 -8
23 3 5 1 7 -5 3 -6 -3 -13 3 -17 14 -3 11 -14 20 -23 20 -15 0 -15 2 -2 10 11
7 11 10 2 10 -7 0 -11 4 -8 8 3 5 -13 28 -34 51 -22 24 -37 47 -34 52 3 5 0 9
-7 9 -7 0 -9 3 -6 7 4 3 -2 13 -13 20 -11 8 -18 19 -15 24 4 5 1 9 -4 9 -13 0
-71 59 -71 73 0 5 -7 4 -15 -3 -10 -8 -15 -9 -15 -2 0 6 -6 9 -14 6 -8 -3 -17
0 -22 7 -5 8 -3 10 7 4 8 -5 10 -4 6 0 -10 12 -38 15 -31 4 3 -5 0 -9 -5 -9
-6 0 -11 5 -11 10 0 6 -7 10 -16 10 -9 0 -12 -5 -8 -11 4 -7 1 -10 -7 -7 -8 3
-13 11 -11 17 3 17 -7 13 -20 -8z m758 -1625 c3 8 13 4 29 -10 16 -14 20 -24
14 -32 -7 -8 -6 -15 2 -20 8 -5 10 -3 4 7 -6 10 -5 11 3 4 6 -6 12 -25 14 -43
1 -17 7 -32 12 -32 5 0 1 -7 -10 -16 -10 -8 -13 -12 -6 -9 9 5 15 -1 19 -14 3
-11 9 -19 12 -16 4 2 8 -2 8 -10 0 -8 -5 -11 -11 -8 -8 5 -8 2 0 -8 16 -21 24
-59 12 -59 -6 0 -3 -9 7 -20 16 -18 16 -20 2 -26 -13 -5 -14 -9 -4 -19 7 -7
17 -10 22 -7 6 2 5 -1 -2 -8 -9 -10 -8 -16 3 -27 11 -11 12 -19 4 -28 -8 -10
-8 -15 0 -20 8 -5 8 -11 -1 -21 -6 -8 -8 -14 -3 -14 5 0 -9 -16 -31 -35 -21
-20 -44 -34 -51 -31 -6 2 -11 -3 -10 -12 1 -11 -5 -16 -18 -14 -11 2 -15 -1
-11 -7 3 -6 -1 -11 -10 -11 -9 0 -14 -4 -10 -9 3 -5 -4 -12 -15 -16 -11 -3
-20 -11 -20 -16 0 -6 -4 -8 -9 -4 -6 3 -14 -3 -20 -12 -6 -10 -11 -13 -11 -8
0 6 -10 -1 -21 -15 -11 -14 -18 -19 -14 -11 5 9 -1 8 -19 -4 -14 -9 -23 -21
-20 -26 3 -5 -2 -6 -10 -3 -9 3 -26 -5 -40 -19 -14 -14 -27 -22 -30 -19 -3 3
-6 0 -6 -6 0 -7 -7 -12 -15 -12 -8 0 -15 -4 -15 -10 0 -5 -7 -10 -16 -10 -8 0
-12 -4 -9 -10 3 -5 -1 -10 -9 -10 -9 0 -16 -5 -16 -11 0 -5 -4 -8 -9 -4 -6 3
-14 -3 -20 -12 -5 -10 -13 -15 -17 -11 -4 4 -15 -2 -25 -13 -9 -11 -21 -20
-26 -21 -4 0 -7 -4 -6 -9 2 -5 -4 -9 -13 -9 -8 0 -13 -4 -10 -9 3 -5 -8 -11
-24 -15 -20 -3 -30 -12 -30 -23 0 -15 -2 -16 -10 -3 -6 10 -10 11 -10 3 0 -7
-8 -13 -17 -13 -15 0 -16 -2 -3 -10 13 -8 12 -10 -2 -10 -10 0 -18 -4 -18 -10
0 -5 -6 -9 -12 -7 -7 1 -12 -4 -10 -11 1 -8 -1 -11 -6 -8 -14 8 -62 -17 -62
-32 0 -7 -4 -11 -9 -8 -5 4 -23 -5 -39 -19 -16 -13 -32 -22 -36 -18 -3 3 -6
-1 -6 -11 0 -11 -4 -14 -12 -10 -8 5 -9 2 -5 -10 5 -14 3 -15 -12 -6 -14 7
-20 6 -25 -6 -3 -9 -11 -12 -18 -8 -8 5 -9 2 -5 -10 4 -9 3 -15 -2 -12 -7 5
-18 -2 -67 -43 -7 -6 -16 -5 -24 2 -10 9 -11 9 -6 0 4 -7 3 -13 -1 -13 -5 0
-18 -7 -29 -16 -10 -8 -12 -13 -4 -9 8 4 6 -1 -4 -9 -11 -9 -29 -16 -40 -16
-10 0 -17 -3 -13 -6 10 -10 -17 -32 -32 -26 -8 3 -12 1 -8 -5 6 -10 -40 -38
-56 -34 -5 1 -6 -3 -2 -9 3 -5 -1 -10 -10 -10 -9 0 -13 -4 -10 -10 3 -5 -1
-10 -9 -10 -9 0 -16 -5 -16 -11 0 -5 -4 -8 -8 -5 -5 3 -18 -3 -29 -14 -12 -10
-24 -16 -27 -13 -3 4 -6 1 -6 -6 0 -7 -4 -10 -9 -6 -6 3 -15 -3 -20 -14 -6
-10 -22 -22 -36 -25 -14 -4 -24 -12 -22 -19 1 -7 -8 -11 -26 -10 -15 1 -25 -2
-22 -7 7 -12 -26 -29 -44 -22 -11 4 -11 6 0 13 10 6 7 9 -10 9 -13 0 -21 3
-18 6 4 4 -3 15 -15 25 -11 11 -17 19 -12 19 5 0 4 4 -3 8 -6 4 -13 14 -15 22
-2 8 -11 21 -20 28 -10 7 -18 23 -18 35 0 13 -9 29 -19 37 -11 7 -18 17 -15
21 7 13 -8 39 -19 32 -6 -4 -8 0 -4 10 3 10 2 17 -3 17 -6 0 -10 7 -10 15 0 8
-8 15 -17 15 -15 0 -16 2 -3 10 10 6 11 10 3 10 -7 0 -13 5 -13 10 0 11 -6 19
-57 76 -18 19 -33 29 -33 22 -1 -9 -5 -7 -14 5 -13 17 -14 17 -21 0 -5 -12 -9
-14 -12 -5 -7 18 -23 15 -23 -5 0 -13 -3 -14 -8 -6 -8 13 -52 9 -61 -5 -3 -5
-16 -8 -28 -7 -12 1 -19 -3 -16 -8 3 -6 -7 -8 -26 -5 -17 2 -31 1 -31 -3 0 -4
-9 -11 -20 -14 -11 -4 -18 -10 -16 -13 2 -4 -9 -7 -25 -7 -16 -1 -29 3 -29 8
0 5 -6 5 -13 -1 -8 -7 -18 -7 -27 -2 -8 6 -11 10 -6 10 5 0 3 6 -3 14 -9 11
-9 20 -2 34 7 13 7 22 -1 30 -8 8 -8 15 2 27 7 8 8 15 3 15 -5 0 -9 9 -10 20
-1 11 4 20 10 20 8 0 8 3 2 8 -14 10 -14 95 -1 104 8 5 8 8 0 8 -14 0 -14 322
0 332 6 4 19 5 30 2 10 -4 16 -2 13 3 -3 5 4 9 16 9 12 -1 26 -7 30 -13 4 -7
13 -13 18 -13 6 0 17 -7 25 -15 9 -8 13 -15 9 -15 -3 0 0 -6 7 -14 7 -8 16
-12 20 -10 9 6 48 -33 41 -40 -3 -3 4 -4 16 -1 13 2 21 -1 21 -11 0 -8 9 -14
20 -14 11 0 20 -4 20 -10 0 -5 5 -10 11 -10 5 0 7 6 3 13 -4 6 2 4 14 -7 12
-10 20 -21 18 -25 -2 -3 18 -4 45 -3 29 3 49 0 49 -6 0 -12 34 -26 67 -27 12
-1 19 3 17 7 -3 4 0 8 5 8 6 0 11 -3 11 -7 0 -5 11 -8 25 -8 14 0 25 4 25 9 0
5 8 2 17 -5 14 -12 16 -12 11 2 -4 9 -1 16 8 16 7 0 11 -3 9 -7 -2 -4 2 -7 10
-7 8 0 12 4 9 9 -3 4 -2 8 3 9 4 0 17 2 28 5 11 2 37 4 58 5 20 1 37 7 37 13
0 6 5 4 10 -4 8 -13 10 -13 10 2 0 9 5 20 12 24 7 5 8 3 3 -6 -6 -10 -4 -11 6
-4 8 4 23 10 34 11 11 2 22 8 23 13 2 6 10 10 18 10 9 0 13 4 10 9 -4 5 2 8
11 7 10 -2 23 2 30 8 6 6 33 29 59 51 61 51 164 156 164 167 0 4 7 8 15 8 8 0
15 5 15 10 0 6 9 19 20 30 12 12 18 25 15 30 -3 6 5 21 19 35 15 14 26 34 26
44 0 10 11 24 25 31 13 7 22 17 19 21 -2 4 20 7 50 6 44 -2 52 1 48 13 -5 13
-3 13 12 1 15 -12 17 -12 14 0 -2 8 5 14 14 14 9 0 19 3 23 7 4 3 20 2 36 -2
17 -5 31 -5 35 1 3 5 10 6 16 3 6 -4 8 -3 5 3 -10 15 33 29 82 27 36 -2 44 2
49 18 3 14 7 16 13 7 6 -10 10 -10 23 0 8 7 28 10 45 8 21 -4 29 -2 24 6 -4 6
0 8 10 4 9 -3 18 1 21 10 4 8 13 13 21 9 8 -3 15 -2 15 3 0 4 7 8 15 8 8 0 15
-4 15 -9 0 -5 6 -6 13 -1 6 4 18 8 26 10 8 1 17 7 21 13 4 7 28 13 54 13 25 1
46 6 46 12 0 5 5 3 11 -5 7 -10 12 -11 15 -4z m-1501 -246 c-3 -5 -1 -10 4
-10 6 0 11 3 11 8 0 4 20 7 44 7 24 0 42 -3 40 -7 -6 -10 35 -30 46 -23 6 4
15 -7 21 -24 6 -17 15 -31 21 -31 5 0 6 -4 3 -10 -3 -5 -1 -10 6 -10 8 0 7 -5
-2 -17 -10 -11 -10 -14 -1 -9 19 12 14 -1 -10 -24 -14 -12 -17 -20 -8 -20 8 0
5 -7 -8 -19 -12 -10 -18 -21 -15 -25 4 -4 -1 -4 -10 0 -12 4 -17 2 -15 -7 2
-8 -3 -13 -10 -11 -8 1 -11 -2 -7 -7 3 -6 -5 -16 -17 -23 -30 -16 -48 -19 -48
-6 0 5 -6 3 -14 -5 -16 -16 -60 -15 -81 3 -9 7 -15 8 -20 1 -4 -7 -12 -7 -25
1 -10 7 -16 16 -14 20 3 4 0 8 -6 8 -30 0 -50 74 -25 92 6 5 6 8 -2 8 -19 0
-8 29 20 56 15 14 25 29 22 34 -4 6 2 7 11 3 12 -4 15 -3 10 5 -4 7 -2 13 3
13 6 1 16 3 21 4 6 1 17 3 26 4 8 0 13 5 10 10 -4 5 0 12 6 14 19 8 20 8 13
-3z m-2192 -4175 c37 -4 38 -5 33 -14 -3 -5 3 -11 14 -14 13 -3 18 -1 13 6 -5
9 -3 9 8 2 8 -6 33 -10 56 -10 25 1 39 -3 36 -8 -4 -6 -1 -7 8 -1 23 15 63 11
84 -9 11 -10 35 -18 55 -18 19 0 68 1 108 1 62 1 77 -2 92 -20 19 -22 36 -27
24 -7 -6 9 -4 9 7 1 8 -6 50 -10 94 -10 58 1 83 -3 91 -13 6 -8 25 -14 43 -13
17 0 31 -3 31 -8 0 -4 6 -8 13 -7 38 1 45 -4 43 -32 -2 -22 2 -28 14 -23 13 5
13 3 2 -10 -11 -14 -10 -18 5 -27 10 -6 14 -11 8 -11 -5 0 -4 -4 4 -9 13 -8
13 -12 0 -27 -8 -10 -9 -15 -3 -11 14 8 48 -28 39 -42 -3 -6 -1 -11 4 -11 6 0
11 -7 11 -15 0 -9 6 -18 14 -21 15 -6 16 -21 2 -43 -6 -8 -5 -12 0 -8 14 8 43
-17 43 -39 1 -40 5 -53 14 -51 5 1 11 -6 12 -16 3 -13 -1 -17 -12 -13 -14 6
-14 4 -2 -11 9 -11 10 -14 2 -9 -7 4 -13 3 -13 -1 0 -5 -11 -9 -25 -9 -19 0
-24 4 -20 16 4 13 4 13 -7 0 -14 -17 -88 -25 -88 -10 0 6 -9 10 -21 10 -12 0
-17 4 -13 11 4 8 0 8 -15 0 -14 -8 -21 -8 -21 -1 0 7 -6 8 -19 1 -10 -6 -21
-8 -24 -4 -11 10 -52 9 -59 -2 -5 -6 -8 -6 -8 3 0 6 -7 12 -15 12 -9 0 -18 7
-21 15 -4 8 -14 15 -24 15 -11 0 -34 9 -52 19 -18 10 -41 17 -51 16 -9 -2 -15
1 -12 5 3 5 -4 14 -16 20 -17 10 -20 9 -14 -2 5 -7 -4 -2 -19 12 -24 21 -26
22 -20 5 6 -18 4 -17 -10 2 -10 13 -23 20 -31 17 -9 -4 -15 0 -15 7 0 10 -3
10 -11 2 -8 -8 -20 -8 -35 -3 -14 6 -26 6 -29 0 -3 -6 -16 0 -28 13 -20 20
-32 23 -109 23 -48 0 -84 -4 -81 -9 3 -5 -7 -1 -23 9 -15 11 -25 14 -21 7 5
-8 -6 -11 -40 -9 -27 2 -53 -1 -60 -6 -7 -6 -14 -4 -19 3 -5 8 -3 9 6 4 9 -5
11 -4 6 4 -5 7 -12 9 -19 3 -7 -5 -27 -8 -45 -6 -21 1 -30 -1 -26 -8 5 -7 2
-8 -7 -2 -21 13 -32 11 -53 -8 -10 -9 -24 -14 -32 -11 -8 3 -14 1 -14 -4 0 -5
-7 -10 -15 -10 -8 0 -15 4 -15 9 0 5 -9 4 -19 -2 -13 -6 -22 -7 -26 0 -3 5
-12 7 -21 3 -8 -3 -13 -8 -10 -10 9 -9 -28 -42 -38 -34 -18 14 -50 9 -67 -10
-9 -10 -19 -16 -23 -12 -3 3 -6 1 -6 -5 0 -6 -7 -9 -15 -6 -8 4 -15 1 -15 -6
0 -6 -4 -8 -10 -5 -5 3 -10 -1 -10 -10 0 -9 -5 -13 -10 -10 -6 4 -18 1 -27 -7
-14 -11 -16 -11 -8 2 4 8 -2 5 -13 -7 -12 -12 -29 -20 -39 -18 -10 2 -24 4
-30 4 -7 1 -12 7 -10 14 1 6 -4 11 -11 9 -9 -2 -11 4 -7 18 4 12 2 20 -5 20
-6 0 -8 5 -5 10 4 6 12 7 18 3 8 -4 7 -1 -1 9 -10 12 -10 17 -1 20 7 2 13 16
15 31 2 25 97 127 118 127 5 0 6 3 3 6 -7 8 44 50 55 46 5 -1 7 4 6 10 -2 7 3
12 10 10 11 -2 17 11 13 32 -1 5 5 6 13 3 8 -3 16 -2 18 3 2 5 9 10 17 12 8 2
23 11 33 21 11 10 26 16 34 13 9 -3 12 -2 9 5 -4 6 2 13 14 16 11 3 23 13 26
22 3 10 17 18 35 19 17 1 39 11 49 21 12 12 29 17 50 15 17 -2 31 1 31 7 0 6
5 7 10 4 6 -3 10 -1 10 5 0 7 7 9 16 6 8 -3 12 -2 9 4 -3 6 -1 10 4 10 6 0 11
-6 11 -12 0 -10 3 -9 9 1 5 7 14 10 20 7 6 -4 11 -3 11 3 0 6 7 8 16 4 9 -3
25 -7 37 -8z"/>
<path d="M3519 2183 c-13 -16 -12 -17 4 -4 16 13 21 21 13 21 -2 0 -10 -8 -17
-17z"/>
<path d="M617 7206 c-10 -11 -15 -14 -11 -6 6 12 5 13 -7 4 -8 -6 -24 -10 -36
-9 -12 1 -22 -1 -21 -4 2 -18 -3 -33 -9 -28 -3 4 -17 -6 -31 -21 -14 -15 -29
-26 -34 -25 -4 2 -5 -4 -2 -11 3 -9 -3 -17 -15 -21 -12 -3 -19 -10 -16 -15 3
-5 -2 -13 -11 -18 -9 -5 -15 -12 -15 -15 1 -4 1 -8 0 -9 -2 -7 -10 -65 -11
-76 -1 -7 -7 -11 -14 -8 -10 4 -11 -1 -3 -21 5 -15 8 -32 5 -39 -3 -8 1 -20 9
-28 11 -11 12 -16 2 -19 -9 -4 -8 -8 3 -16 10 -7 11 -11 3 -11 -7 0 -13 -5
-13 -11 0 -5 4 -8 9 -4 6 3 10 -3 10 -12 -1 -41 20 -85 35 -76 6 4 5 -1 -3
-11 -13 -15 -13 -19 0 -27 8 -5 10 -9 5 -9 -5 0 -2 -7 5 -16 15 -18 20 -36 21
-81 1 -18 5 -33 10 -33 4 0 8 -7 8 -16 0 -9 6 -14 13 -11 7 3 12 -4 12 -19 0
-13 -3 -24 -7 -24 -11 0 4 -42 18 -47 8 -3 11 -9 8 -14 -3 -5 -1 -9 5 -9 5 0
8 -13 6 -29 -2 -19 4 -38 16 -53 14 -15 19 -32 16 -55 -3 -18 -1 -30 4 -27 5
3 9 -2 9 -11 0 -9 4 -14 8 -11 9 5 10 2 14 -49 2 -17 8 -29 15 -28 7 2 10 -6
8 -17 -2 -11 1 -20 7 -20 6 0 8 -9 5 -20 -3 -11 -1 -20 4 -20 4 0 6 -7 3 -15
-4 -8 1 -17 9 -21 9 -3 13 -12 10 -21 -4 -11 -2 -14 5 -9 9 5 9 0 2 -19 -8
-20 -7 -27 5 -31 8 -4 12 -10 9 -15 -3 -5 -1 -9 4 -9 8 0 12 -15 13 -55 0 -11
8 -28 17 -38 9 -11 16 -22 15 -26 0 -3 3 -5 8 -3 6 1 6 -5 0 -16 -7 -14 -6
-25 6 -42 9 -13 11 -20 5 -16 -7 4 -12 3 -12 -3 0 -5 5 -11 11 -13 5 -2 11
-10 13 -18 2 -8 6 -23 10 -32 4 -9 5 -21 2 -27 -4 -5 5 -21 20 -34 21 -20 24
-28 15 -44 -8 -16 -6 -24 9 -40 10 -12 16 -24 13 -27 -4 -3 -1 -6 5 -6 6 0 9
-7 5 -16 -3 -9 0 -20 8 -25 12 -7 12 -9 0 -9 -10 0 -7 -6 7 -18 13 -12 20 -28
18 -45 -2 -15 1 -27 6 -27 6 0 7 -7 4 -16 -5 -12 -2 -15 10 -10 12 4 14 1 9
-14 -4 -12 -2 -20 6 -20 9 0 8 -4 -1 -15 -9 -10 -9 -15 -1 -15 6 0 11 -7 11
-15 0 -8 6 -15 13 -15 8 0 12 -13 11 -35 -1 -19 2 -32 7 -29 5 3 9 -2 9 -11 0
-9 4 -14 8 -11 5 3 9 -11 10 -32 1 -20 6 -38 12 -40 6 -2 8 -8 4 -13 -3 -5 2
-9 10 -9 17 0 17 -20 1 -32 -6 -5 -5 -8 3 -8 6 0 12 -9 12 -20 0 -11 5 -20 10
-20 6 0 10 -9 10 -19 0 -11 6 -22 13 -24 9 -4 9 -6 -1 -6 -10 -1 -10 -6 -2
-21 7 -12 16 -18 23 -13 7 4 5 -2 -3 -12 -9 -11 -10 -16 -2 -11 12 7 14 -1 15
-51 0 -12 4 -20 8 -17 5 3 9 -2 9 -10 0 -9 4 -16 9 -16 5 0 8 -8 6 -17 -3 -22
13 -55 24 -49 5 3 7 -6 5 -20 -3 -27 19 -78 29 -67 6 6 11 -20 8 -39 0 -5 4
-8 10 -8 5 0 7 -4 4 -10 -3 -6 2 -10 11 -10 10 0 14 -3 11 -7 -4 -3 -2 -12 4
-20 9 -10 8 -13 -2 -13 -8 0 -4 -8 9 -20 20 -19 24 -27 21 -46 0 -3 8 -13 18
-22 10 -9 19 -24 21 -32 2 -8 8 -17 13 -18 5 -2 7 -8 3 -13 -3 -5 0 -9 5 -9 6
0 11 -6 11 -13 0 -7 7 -22 16 -33 8 -10 12 -12 8 -4 -4 9 -3 12 2 7 5 -5 9
-21 9 -35 0 -16 5 -26 12 -24 12 2 14 -3 17 -40 1 -7 9 -21 20 -30 10 -10 16
-24 13 -32 -3 -8 1 -17 9 -20 9 -3 12 -10 9 -16 -3 -5 -2 -10 4 -10 5 0 12
-14 16 -31 4 -17 13 -33 21 -36 8 -3 11 -9 8 -14 -3 -5 0 -9 7 -9 7 0 10 -3 6
-6 -3 -3 3 -14 14 -25 10 -10 16 -25 13 -34 -4 -8 -1 -15 4 -15 11 0 28 -38
24 -53 -1 -5 2 -5 8 -2 7 4 14 -2 17 -14 3 -11 9 -19 13 -16 11 7 7 -38 -5
-51 -5 -7 -14 -9 -19 -6 -5 3 -7 -2 -3 -11 3 -10 2 -17 -4 -17 -6 0 -8 -3 -6
-7 6 -10 -18 -34 -27 -27 -3 2 -4 1 -1 -2 7 -11 -15 -45 -26 -39 -5 4 -8 3 -7
-2 4 -17 -14 -53 -24 -47 -6 4 -8 2 -4 -4 3 -6 -5 -23 -19 -38 -13 -14 -22
-30 -19 -35 3 -5 1 -9 -4 -9 -5 0 -15 -13 -22 -30 -7 -16 -19 -30 -27 -30 -8
0 -12 -4 -9 -9 3 -5 -1 -12 -10 -15 -8 -3 -12 -10 -9 -16 3 -6 -1 -13 -10 -16
-9 -4 -14 -13 -11 -20 3 -8 1 -14 -5 -14 -6 0 -7 -5 -4 -10 4 -6 3 -9 -2 -8
-12 4 -57 -46 -61 -66 -2 -9 -11 -26 -20 -36 -30 -33 -42 -49 -42 -56 0 -4 -8
-13 -18 -21 -11 -10 -12 -12 -2 -8 10 4 9 2 -2 -8 -10 -8 -18 -17 -18 -21 0
-4 -11 -19 -24 -33 -14 -15 -22 -33 -19 -42 4 -9 2 -13 -2 -8 -5 4 -19 -11
-32 -33 -15 -25 -29 -38 -36 -33 -7 4 -6 0 2 -10 9 -11 10 -17 2 -17 -6 0 -16
-11 -21 -25 -5 -14 -13 -25 -18 -25 -4 0 -16 -14 -26 -31 -13 -22 -15 -30 -5
-24 8 4 1 -4 -15 -19 -16 -14 -25 -26 -21 -26 5 0 0 -6 -11 -14 -10 -8 -20
-19 -20 -25 -1 -6 -2 -14 -3 -18 -3 -17 -59 -72 -65 -66 -4 4 -4 0 0 -10 4
-10 1 -17 -6 -17 -7 0 -10 -6 -7 -13 3 -8 -8 -24 -23 -37 -16 -13 -27 -27 -24
-32 8 -12 -27 -58 -40 -51 -6 3 -8 3 -4 -2 4 -4 2 -15 -5 -23 -10 -13 -9 -14
2 -7 8 5 5 -6 -8 -24 -13 -18 -21 -34 -18 -37 2 -3 -4 -15 -16 -28 -11 -12
-21 -36 -23 -52 -2 -16 -9 -33 -16 -39 -7 -5 -12 -25 -11 -43 1 -17 -2 -32 -7
-32 -5 0 -11 -14 -15 -30 -4 -18 -11 -27 -17 -24 -7 5 -8 2 -2 -7 13 -21 14
-39 1 -39 -8 0 -7 -3 2 -9 9 -6 10 -11 2 -15 -6 -4 -9 -12 -5 -17 11 -19 12
-79 1 -79 -8 0 -7 -4 2 -9 9 -6 10 -11 2 -15 -8 -5 -8 -13 -1 -26 5 -10 7 -26
3 -36 -4 -11 -3 -15 5 -10 10 6 38 -31 34 -44 -4 -11 10 -40 19 -40 6 0 7 -4
4 -10 -3 -5 -2 -10 4 -10 5 0 8 -9 6 -20 -2 -12 3 -21 16 -25 11 -4 18 -9 16
-13 -3 -7 56 -68 71 -74 4 -2 6 -6 5 -9 -1 -4 6 -6 15 -6 34 0 42 -3 42 -17 0
-8 10 -13 24 -13 27 0 59 -26 48 -38 -4 -4 4 -2 17 5 13 7 26 8 30 3 3 -5 13
-8 21 -8 8 1 23 -6 33 -14 16 -14 17 -13 12 5 -6 17 -5 17 7 3 15 -18 68 -31
68 -16 0 5 7 4 15 -3 12 -10 15 -10 15 1 0 11 3 11 11 -1 8 -12 12 -12 16 -2
4 10 8 10 19 1 11 -9 14 -8 14 2 0 11 3 11 11 -1 8 -11 12 -12 16 -2 2 6 10 9
16 5 17 -10 47 -11 47 -1 0 5 6 6 12 2 18 -11 48 -12 48 -2 0 5 6 6 12 2 18
-11 48 -12 48 -2 0 5 6 6 12 2 18 -11 48 -12 48 -2 0 5 5 6 11 2 14 -8 395 -8
409 1 5 3 11 2 13 -3 6 -8 109 -7 133 2 8 3 14 2 14 -2 0 -4 11 -7 25 -7 14 0
25 5 25 10 0 6 4 5 8 -1 8 -13 52 0 52 15 0 5 9 8 20 6 13 -3 26 7 40 31 12
19 26 34 31 34 6 0 7 5 4 10 -4 6 -1 17 5 25 6 8 9 19 5 25 -3 5 -1 10 6 10
10 0 10 3 1 12 -14 14 -16 32 -2 23 6 -3 7 1 4 9 -3 9 -10 16 -14 16 -4 0 -11
7 -14 16 -3 8 -2 12 4 9 6 -3 7 1 4 9 -3 9 -10 14 -14 11 -4 -3 -10 4 -13 15
-3 11 -12 20 -21 20 -9 0 -16 7 -16 15 0 9 -6 12 -15 9 -8 -4 -15 -2 -15 3 0
5 -7 10 -15 10 -8 0 -15 -5 -15 -11 0 -7 -3 -8 -8 -1 -4 6 -16 11 -27 11 -11
0 -23 -5 -27 -11 -5 -6 -8 -7 -8 0 0 6 -13 11 -30 11 -18 1 -27 -2 -23 -9 4
-6 1 -7 -8 -1 -20 13 -139 13 -139 0 0 -8 -3 -8 -8 -1 -9 14 -65 14 -74 0 -5
-7 -8 -6 -8 1 0 15 -70 14 -70 -1 0 -7 -3 -7 -8 0 -4 6 -20 11 -37 11 -16 0
-33 -5 -37 -11 -5 -7 -8 -6 -8 1 0 15 -70 14 -70 -1 0 -7 -3 -7 -8 0 -9 14
-65 14 -74 0 -5 -7 -8 -6 -8 1 0 15 -70 14 -70 -1 0 -7 -3 -7 -8 0 -4 6 -20
11 -37 11 -16 0 -33 -5 -37 -11 -5 -6 -8 -6 -8 2 0 13 -18 12 -39 -1 -9 -6
-12 -5 -8 1 4 7 -5 10 -23 9 -17 0 -30 -5 -30 -11 0 -5 -4 -4 -9 3 -9 14 -32
13 -43 -3 -5 -6 -8 -5 -8 2 0 8 -11 11 -30 9 -19 -2 -33 2 -39 11 -4 8 -11 14
-14 14 -28 -4 -57 1 -53 8 3 5 -1 11 -9 15 -8 3 -15 13 -15 23 0 15 -2 16 -10
3 -9 -13 -10 -13 -10 0 -1 8 -3 36 -5 63 -2 32 0 45 7 41 7 -5 8 -2 3 5 -14
24 -7 95 11 108 10 7 14 13 10 13 -5 0 -3 6 3 14 6 8 11 18 10 22 -3 21 2 35
11 29 6 -3 10 0 10 9 0 8 6 17 13 19 9 4 8 6 -2 6 -10 1 -7 7 7 20 12 10 19
21 15 25 -3 3 -1 6 5 6 6 0 9 7 5 17 -4 10 -2 14 4 10 6 -4 16 0 23 8 7 8 9
15 5 15 -5 0 -1 8 8 18 10 10 15 21 12 23 -2 3 9 20 25 37 16 18 25 32 19 32
-5 0 -1 9 9 19 31 35 43 51 37 51 -3 0 0 6 7 14 7 8 16 12 20 10 3 -2 5 4 4
13 -2 10 6 26 18 36 12 10 21 23 21 28 0 5 5 13 11 17 6 4 15 18 19 30 7 22
45 69 45 56 0 -4 6 -1 14 5 8 7 11 22 8 38 -3 18 -1 24 7 19 6 -4 11 -2 11 3
0 6 11 21 25 33 14 12 25 30 25 40 0 10 9 26 20 35 11 10 20 23 20 29 0 7 4
14 9 16 5 2 11 10 13 18 2 8 12 23 23 33 11 10 13 15 5 12 -8 -4 -2 4 13 18
25 23 33 38 36 70 1 5 5 6 10 3 9 -6 26 22 23 36 -1 4 7 10 18 13 10 3 17 12
14 19 -2 6 7 25 21 42 14 16 25 32 25 37 0 4 7 7 15 7 8 0 16 5 16 10 1 6 2
15 3 20 0 6 7 14 14 19 8 5 13 11 13 15 -1 16 13 36 36 51 14 10 22 12 19 6
-4 -6 -2 -11 4 -11 6 0 8 -4 5 -10 -5 -9 7 -14 27 -11 4 0 5 -8 3 -19 -2 -11
1 -20 6 -20 6 0 7 -4 4 -10 -3 -5 -2 -10 4 -10 9 0 17 -15 23 -45 1 -5 12 -20
25 -33 12 -12 20 -28 17 -36 -3 -7 2 -16 11 -20 11 -4 15 -12 11 -23 -4 -10
-4 -14 0 -11 9 9 34 -17 34 -36 0 -8 6 -21 13 -28 32 -35 51 -61 40 -54 -21
12 -15 -8 7 -24 11 -8 20 -20 20 -27 0 -6 7 -16 16 -21 9 -5 15 -11 13 -13 -5
-9 13 -49 22 -49 5 0 9 -7 9 -15 0 -7 8 -19 18 -24 9 -6 13 -11 9 -11 -9 0 8
-34 31 -61 17 -19 18 -23 21 -54 0 -8 7 -14 14 -12 6 1 11 -6 11 -15 -1 -10 2
-18 7 -18 13 0 37 -52 34 -73 -2 -9 1 -15 5 -12 5 3 14 -4 21 -16 15 -29 55
-69 69 -69 5 0 10 -6 10 -13 0 -7 9 -14 20 -15 46 -4 51 -6 46 -18 -3 -7 3
-13 12 -13 9 0 38 -2 65 -4 30 -3 47 -1 47 6 0 6 7 2 16 -9 8 -10 13 -14 10
-7 -4 6 -2 14 4 18 5 3 10 3 10 -2 0 -4 14 -8 30 -8 17 0 30 4 30 8 0 5 4 6 9
3 13 -8 42 4 36 14 -3 5 -1 11 5 15 5 3 10 0 10 -7 0 -10 2 -10 9 1 6 9 16 11
27 7 10 -4 15 -4 12 0 -4 3 17 30 47 60 32 31 57 65 59 81 3 15 10 29 16 31 5
2 8 8 4 13 -3 5 -1 9 4 9 5 0 8 25 7 55 -2 35 1 52 8 48 6 -4 7 -1 2 7 -5 8
-9 31 -10 53 -1 25 -8 43 -19 49 -10 6 -15 18 -12 34 3 17 0 24 -10 24 -8 0
-12 5 -9 10 3 6 2 10 -3 10 -5 0 -9 7 -10 15 -1 8 -3 22 -4 30 -1 8 -11 15
-22 16 -12 0 -16 3 -9 5 8 4 9 13 3 29 -5 12 -6 26 -2 31 4 4 1 4 -7 -1 -11
-6 -13 -3 -9 12 4 17 2 20 -16 16 -17 -4 -18 -3 -6 6 10 7 11 11 3 11 -7 0
-12 3 -12 8 4 24 -2 52 -11 47 -6 -3 -10 -1 -10 4 0 21 -2 26 -13 40 -7 9 -8
12 -1 8 6 -3 11 0 11 8 0 8 -3 14 -6 13 -24 -2 -33 4 -28 22 3 12 -1 24 -11
30 -14 7 -14 9 -2 10 10 0 7 5 -7 15 -12 9 -20 21 -17 29 3 7 -2 19 -11 26 -8
7 -15 21 -15 31 0 11 -5 19 -11 19 -8 0 -7 6 2 18 7 9 9 14 5 10 -12 -10 -39
29 -31 42 3 6 2 10 -4 10 -6 0 -8 7 -5 15 4 8 -1 17 -10 21 -9 3 -13 10 -10
15 3 5 0 9 -6 9 -7 0 -10 7 -7 15 4 8 2 17 -4 20 -5 4 -7 11 -4 16 4 5 -1 9
-10 9 -11 0 -15 5 -11 15 3 8 1 15 -5 15 -6 0 -7 5 -3 12 4 6 0 16 -9 23 -9 6
-18 26 -19 43 -1 18 -6 32 -10 32 -4 0 -8 7 -8 16 0 9 -5 12 -12 8 -7 -5 -9
-2 -5 8 3 9 0 21 -6 27 -6 6 -7 11 -2 11 4 0 -1 8 -12 18 -11 9 -19 25 -17 34
1 9 -6 27 -17 39 -10 12 -16 26 -13 30 3 5 0 9 -7 9 -7 0 -9 3 -6 7 4 3 0 11
-8 17 -9 6 -16 25 -18 41 -1 17 -11 38 -22 48 -11 10 -15 16 -8 13 8 -5 8 0 0
19 -7 14 -15 25 -19 25 -5 0 -8 9 -8 19 0 11 -6 22 -12 24 -10 4 -10 6 0 6 7
1 1 12 -15 27 -15 15 -19 20 -8 13 18 -13 18 -11 -3 24 -12 21 -17 35 -10 31
7 -5 8 -3 4 5 -5 7 -15 10 -22 7 -11 -4 -13 -2 -5 11 6 12 5 21 -7 30 -11 8
-12 12 -4 13 7 0 4 8 -8 20 -12 12 -18 25 -15 30 4 6 3 10 -2 10 -4 0 -9 11
-9 25 -1 13 -9 32 -18 41 -10 9 -15 22 -12 29 2 7 -4 22 -14 33 -10 10 -20 30
-22 43 -1 13 -10 31 -18 39 -9 8 -16 23 -17 33 -1 33 -3 38 -12 33 -11 -7 -23
22 -15 35 3 5 -1 9 -8 9 -9 0 -9 3 2 10 13 8 12 10 -3 10 -19 0 -37 37 -29 59
3 8 1 12 -5 8 -12 -8 -31 31 -27 56 1 9 -4 17 -12 17 -8 0 -14 9 -14 21 0 11
-3 18 -7 16 -5 -3 -9 6 -9 20 -1 13 -10 31 -20 38 -15 11 -16 14 -4 15 12 0
13 2 1 9 -7 5 -10 14 -7 20 4 6 2 11 -5 11 -7 0 -10 3 -6 6 6 7 -15 34 -23 29
-3 -2 -5 12 -4 31 1 19 -2 31 -7 28 -5 -3 -9 0 -9 6 0 6 -5 8 -12 4 -9 -5 -9
-2 1 9 9 12 10 17 2 17 -7 0 -10 4 -6 9 3 5 -2 17 -11 25 -11 12 -12 16 -2 16
8 0 6 5 -5 11 -9 6 -15 14 -12 20 4 5 1 9 -6 9 -8 0 -8 5 2 18 7 9 10 14 5 10
-11 -9 -39 19 -31 32 3 5 1 10 -5 10 -6 0 -8 5 -5 10 8 13 -14 42 -25 35 -4
-3 -7 9 -6 26 2 20 -4 33 -15 40 -10 5 -16 17 -15 26 2 10 -5 25 -15 34 -10 9
-16 19 -12 23 3 3 1 6 -5 6 -6 0 -9 7 -5 15 3 9 -2 22 -13 29 -10 7 -19 26
-21 41 -2 15 -11 34 -19 42 -8 8 -12 19 -9 24 4 5 1 9 -6 9 -6 0 -9 8 -6 20 3
13 0 20 -10 20 -8 0 -12 4 -8 9 3 5 1 12 -5 16 -6 4 -8 11 -5 16 4 5 1 9 -5 9
-6 0 -9 4 -5 9 3 5 -1 15 -8 23 -8 7 -12 18 -10 24 2 7 -2 18 -10 26 -8 7 -13
21 -11 30 1 10 -3 16 -9 15 -6 -1 -12 8 -13 21 -1 12 -2 29 -3 38 0 8 -5 13
-10 10 -9 -6 -26 40 -22 58 1 4 -7 15 -17 25 -10 9 -18 26 -17 39 1 13 -6 27
-16 33 -10 5 -16 15 -13 23 3 7 -1 20 -8 28 -22 23 -39 58 -33 68 3 4 0 10 -7
12 -6 2 -12 11 -14 19 -4 28 -24 69 -32 69 -5 0 -9 7 -10 15 -1 8 -3 22 -4 30
-1 8 -5 15 -10 15 -5 0 -6 5 -3 10 3 6 0 10 -7 10 -8 0 -14 8 -14 18 -1 29 -8
46 -23 58 -8 6 -12 18 -8 27 3 9 -4 26 -18 41 -15 16 -20 28 -13 32 6 4 -1 16
-17 30 -17 14 -22 24 -14 24 8 0 10 3 4 8 -10 7 -17 27 -18 49 0 7 -3 11 -6
10 -3 -1 -8 3 -9 8 -2 6 -9 16 -15 24 -10 12 -9 13 1 7 11 -7 11 -4 0 15 -7
13 -18 29 -25 36 -6 7 -10 21 -9 30 2 10 -5 25 -14 33 -9 8 -16 23 -14 33 1 9
-2 17 -7 17 -6 0 -7 5 -4 10 3 6 1 10 -4 10 -6 0 -11 7 -11 16 0 8 -5 12 -11
8 -8 -4 -9 0 -4 15 4 13 2 21 -5 21 -15 0 -40 25 -40 41 0 7 -3 10 -6 6 -8 -8
-33 16 -27 26 2 4 -3 7 -12 7 -9 0 -13 4 -10 10 3 5 0 7 -8 4 -8 -3 -18 -1
-21 5 -4 6 -13 8 -21 4 -8 -3 -15 0 -15 6 0 6 -3 10 -7 10 -21 -3 -34 2 -28
12 5 7 -23 9 -87 8 -81 -1 -95 -4 -111 -23z"/>
<path d="M430 6636 c0 -2 7 -7 16 -10 8 -3 12 -2 9 4 -6 10 -25 14 -25 6z"/>
</g>
</svg>
